<svg xmlns="http://www.w3.org/2000/svg" width="120" height="160" viewBox="0 0 120 160">
  <rect x="5" y="3" width="110" height="154" rx="7" fill="#fbfbfb" stroke="#2b2b2b" stroke-width="2"/>
  <rect x="8" y="7" width="104" height="146" rx="5" fill="none" stroke="#d8d8d8" stroke-width="0.8" opacity=".55"/>
  <g transform="translate(60 82)">
    <path d="M-9,-37 C-23,-20 -26,8 -13,24 C2,42 26,27 25,3 C24,-17 9,-31 -9,-37Z" fill="none" stroke="#1b42aa" stroke-width="4"/>
    <path d="M-17,-32 C-30,-43 -25,-50 -8,-38" stroke="#d7192d" stroke-width="4" fill="none"/>
    <path d="M1,-29 C17,-46 31,-42 21,-21" stroke="#159447" stroke-width="4" fill="none"/>
    <path d="M-6,-4 C10,-4 21,4 27,16" stroke="#1b42aa" stroke-width="3" fill="none"/>
    <path d="M-17,21 L-27,45 M4,24 L-2,48 M15,20 L32,42" stroke="#159447" stroke-width="4" fill="none"/>
    <path d="M-2,-19 C-2,-8 -2,6 -6,16" stroke="#1b42aa" stroke-width="3"/>
    <circle cx="-4" cy="-22" r="2.5" fill="#1b42aa"/>
    <path d="M-14,-27 L-31,-31 L-16,-20" fill="none" stroke="#d7192d" stroke-width="3"/>
    <path d="M16,-15 C31,0 34,19 41,35" stroke="#d7192d" stroke-width="4"/>
  </g>
</svg>