<svg xmlns="http://www.w3.org/2000/svg" width="120" height="160" viewBox="0 0 120 160">
  <rect x="5" y="3" width="110" height="154" rx="7" fill="#fbfbfb" stroke="#2b2b2b" stroke-width="2"/>
  <rect x="8" y="7" width="104" height="146" rx="5" fill="none" stroke="#d8d8d8" stroke-width="0.8" opacity=".55"/>
  <g transform="translate(43 48)">
    <path d="M0 -16.0 C-5 -12.0 -5 -6.0 0 -2.0 C5 2.0 5 8.0 0 12.0 C-5 16.0 -5 22.0 0 16.0" fill="none" stroke="#159447" stroke-width="4" stroke-linecap="round"/>
    <path d="M-5 -5.0 H5 M-5 5.0 H5" stroke="#159447" stroke-width="2"/>
  </g>
<g transform="translate(77 48)">
    <path d="M0 -16.0 C-5 -12.0 -5 -6.0 0 -2.0 C5 2.0 5 8.0 0 12.0 C-5 16.0 -5 22.0 0 16.0" fill="none" stroke="#159447" stroke-width="4" stroke-linecap="round"/>
    <path d="M-5 -5.0 H5 M-5 5.0 H5" stroke="#159447" stroke-width="2"/>
  </g>
<g transform="translate(43 100)">
    <path d="M0 -16.0 C-5 -12.0 -5 -6.0 0 -2.0 C5 2.0 5 8.0 0 12.0 C-5 16.0 -5 22.0 0 16.0" fill="none" stroke="#159447" stroke-width="4" stroke-linecap="round"/>
    <path d="M-5 -5.0 H5 M-5 5.0 H5" stroke="#159447" stroke-width="2"/>
  </g>
<g transform="translate(77 100)">
    <path d="M0 -16.0 C-5 -12.0 -5 -6.0 0 -2.0 C5 2.0 5 8.0 0 12.0 C-5 16.0 -5 22.0 0 16.0" fill="none" stroke="#159447" stroke-width="4" stroke-linecap="round"/>
    <path d="M-5 -5.0 H5 M-5 5.0 H5" stroke="#159447" stroke-width="2"/>
  </g>
</svg>