<svg xmlns="http://www.w3.org/2000/svg" viewBox="0 0 156 204" width="156" height="204" shape-rendering="geometricPrecision"><title>mahjong tile 27</title>
<path fill="#221815" fill-rule="evenodd" d="M 5.0 4.0 L 1.0 12.0 L 1.0 191.0 L 4.0 198.0 L 11.0 202.0 L 144.0 202.0 L 149.0 200.0 L 154.0 192.0 L 154.0 12.0 L 152.0 6.0 L 147.0 2.0 L 9.0 2.0 Z M 8.0 5.0 L 146.0 4.0 L 150.0 8.0 L 152.0 12.0 L 152.0 191.0 L 146.0 199.0 L 11.0 200.0 L 4.0 194.0 L 3.0 13.0 Z"/>
<path fill="#D11228" fill-rule="evenodd" d="M 82.0 84.0 L 81.0 86.0 L 84.0 89.0 L 85.0 93.0 L 81.0 101.0 L 74.0 102.0 L 66.0 92.0 L 61.0 92.0 L 60.0 93.0 L 64.0 99.0 L 64.0 104.0 L 59.0 107.0 L 50.0 108.0 L 50.0 111.0 L 53.0 115.0 L 57.0 115.0 L 63.0 111.0 L 66.0 113.0 L 67.0 116.0 L 64.0 119.0 L 56.0 122.0 L 56.0 126.0 L 64.0 144.0 L 58.0 149.0 L 52.0 151.0 L 51.0 156.0 L 49.0 158.0 L 45.0 158.0 L 44.0 161.0 L 46.0 164.0 L 51.0 163.0 L 53.0 165.0 L 54.0 171.0 L 58.0 175.0 L 58.0 161.0 L 61.0 158.0 L 69.0 154.0 L 73.0 156.0 L 71.0 160.0 L 66.0 163.0 L 62.0 163.0 L 62.0 166.0 L 66.0 169.0 L 86.0 162.0 L 91.0 162.0 L 95.0 165.0 L 97.0 163.0 L 97.0 158.0 L 91.0 150.0 L 105.0 148.0 L 106.0 156.0 L 103.0 167.0 L 100.0 170.0 L 89.0 171.0 L 99.0 182.0 L 106.0 176.0 L 112.0 167.0 L 118.0 148.0 L 111.0 142.0 L 94.0 143.0 L 88.0 145.0 L 80.0 144.0 L 83.0 139.0 L 89.0 138.0 L 92.0 140.0 L 96.0 136.0 L 97.0 132.0 L 104.0 122.0 L 104.0 118.0 L 100.0 113.0 L 83.0 111.0 L 90.0 104.0 L 105.0 103.0 L 108.0 101.0 L 102.0 96.0 L 93.0 97.0 L 92.0 95.0 L 95.0 91.0 L 94.0 88.0 L 87.0 84.0 Z M 83.0 150.0 L 87.0 152.0 L 86.0 157.0 L 82.0 157.0 L 80.0 155.0 Z M 74.0 144.0 L 73.0 147.0 L 69.0 150.0 L 57.0 155.0 L 53.0 154.0 L 57.0 150.0 L 62.0 149.0 L 72.0 143.0 Z M 63.0 135.0 L 65.0 131.0 L 69.0 131.0 L 71.0 133.0 L 66.0 138.0 Z M 73.0 122.0 L 71.0 125.0 L 64.0 128.0 L 61.0 125.0 L 64.0 121.0 L 71.0 120.0 Z M 92.0 116.0 L 94.0 118.0 L 93.0 123.0 L 88.0 133.0 L 85.0 134.0 L 81.0 131.0 L 86.0 128.0 L 88.0 124.0 L 82.0 119.0 Z M 80.0 103.0 L 81.0 106.0 L 78.0 111.0 L 71.0 116.0 L 69.0 113.0 L 72.0 107.0 L 75.0 104.0 Z"/>
<path fill="#2926A5" fill-rule="evenodd" d="M 27.0 64.0 L 34.0 65.0 L 46.0 60.0 L 58.0 58.0 L 73.0 58.0 L 86.0 60.0 L 98.0 65.0 L 109.0 65.0 L 115.0 59.0 L 117.0 52.0 L 95.0 50.0 L 67.0 50.0 L 47.0 53.0 L 34.0 53.0 L 28.0 58.0 Z M 38.0 31.0 L 51.0 32.0 L 97.0 30.0 L 100.0 28.0 L 100.0 25.0 L 98.0 23.0 L 46.0 23.0 L 43.0 24.0 L 38.0 29.0 Z"/>
</svg>
