<svg xmlns="http://www.w3.org/2000/svg" viewBox="0 0 156 202" width="156" height="202" shape-rendering="geometricPrecision"><title>mahjong tile 02</title>
<path fill="#221815" fill-rule="evenodd" d="M 7.0 0.0 L 1.0 8.0 L 2.0 194.0 L 8.0 199.0 L 149.0 198.0 L 154.0 190.0 L 154.0 9.0 L 151.0 3.0 L 148.0 0.0 Z M 8.0 3.0 L 145.0 2.0 L 151.0 7.0 L 151.0 192.0 L 147.0 196.0 L 10.0 197.0 L 4.0 192.0 L 4.0 8.0 Z"/>
<path fill="#21983A" fill-rule="evenodd" d="M 75.0 134.0 L 73.0 137.0 L 74.0 141.0 L 79.0 142.0 L 82.0 137.0 L 80.0 134.0 Z M 75.0 123.0 L 70.0 125.0 L 64.0 131.0 L 63.0 143.0 L 70.0 151.0 L 78.0 153.0 L 86.0 150.0 L 89.0 147.0 L 92.0 141.0 L 92.0 135.0 L 90.0 130.0 L 85.0 125.0 Z M 76.0 129.0 L 83.0 131.0 L 86.0 135.0 L 85.0 143.0 L 78.0 147.0 L 72.0 145.0 L 68.0 139.0 L 70.0 133.0 Z M 74.0 108.0 L 60.0 113.0 L 53.0 120.0 L 48.0 131.0 L 48.0 144.0 L 53.0 156.0 L 64.0 165.0 L 79.0 168.0 L 91.0 165.0 L 99.0 159.0 L 106.0 147.0 L 107.0 133.0 L 103.0 122.0 L 97.0 115.0 L 86.0 109.0 Z M 76.0 118.0 L 88.0 121.0 L 94.0 127.0 L 97.0 136.0 L 95.0 147.0 L 89.0 154.0 L 82.0 157.0 L 73.0 157.0 L 67.0 155.0 L 61.0 149.0 L 58.0 142.0 L 58.0 134.0 L 60.0 128.0 L 67.0 121.0 Z"/>
<path fill="#2926A5" fill-rule="evenodd" d="M 76.0 57.0 L 73.0 60.0 L 73.0 63.0 L 75.0 65.0 L 80.0 65.0 L 82.0 60.0 L 79.0 57.0 Z M 73.0 47.0 L 65.0 53.0 L 63.0 57.0 L 63.0 66.0 L 65.0 70.0 L 74.0 76.0 L 81.0 76.0 L 90.0 69.0 L 92.0 65.0 L 92.0 58.0 L 89.0 52.0 L 84.0 48.0 Z M 72.0 54.0 L 81.0 53.0 L 85.0 56.0 L 86.0 64.0 L 82.0 69.0 L 75.0 70.0 L 69.0 65.0 L 68.0 60.0 Z M 71.0 32.0 L 61.0 36.0 L 52.0 45.0 L 48.0 55.0 L 48.0 68.0 L 51.0 76.0 L 59.0 85.0 L 68.0 90.0 L 82.0 91.0 L 96.0 85.0 L 104.0 76.0 L 107.0 66.0 L 107.0 57.0 L 104.0 47.0 L 95.0 37.0 L 84.0 32.0 Z M 69.0 43.0 L 85.0 43.0 L 96.0 54.0 L 97.0 64.0 L 95.0 71.0 L 84.0 80.0 L 75.0 81.0 L 68.0 79.0 L 59.0 69.0 L 59.0 54.0 L 61.0 50.0 Z"/>
</svg>
