<svg xmlns="http://www.w3.org/2000/svg" viewBox="0 0 157 204" width="157" height="204" shape-rendering="geometricPrecision"><title>mahjong tile 14</title>
<path fill="#221815" fill-rule="evenodd" d="M 6.0 3.0 L 2.0 8.0 L 3.0 197.0 L 9.0 201.0 L 146.0 201.0 L 150.0 199.0 L 154.0 192.0 L 154.0 10.0 L 152.0 6.0 L 145.0 1.0 L 10.0 1.0 Z M 8.0 5.0 L 146.0 4.0 L 151.0 9.0 L 152.0 192.0 L 147.0 198.0 L 10.0 199.0 L 5.0 195.0 L 4.0 10.0 Z"/>
<path fill="#21983A" fill-rule="evenodd" d="M 111.0 105.0 L 105.0 109.0 L 102.0 117.0 L 105.0 129.0 L 103.0 139.0 L 103.0 149.0 L 105.0 157.0 L 102.0 167.0 L 103.0 172.0 L 108.0 179.0 L 116.0 180.0 L 121.0 176.0 L 123.0 169.0 L 123.0 162.0 L 121.0 157.0 L 121.0 128.0 L 123.0 116.0 L 122.0 111.0 L 119.0 107.0 Z M 111.0 113.0 L 114.0 113.0 L 118.0 117.0 L 115.0 127.0 L 115.0 160.0 L 117.0 169.0 L 114.0 174.0 L 111.0 174.0 L 109.0 172.0 L 109.0 164.0 L 111.0 160.0 L 109.0 144.0 L 111.0 127.0 L 108.0 117.0 Z M 41.0 105.0 L 36.0 107.0 L 32.0 114.0 L 32.0 123.0 L 35.0 130.0 L 32.0 143.0 L 34.0 151.0 L 32.0 170.0 L 36.0 178.0 L 39.0 180.0 L 45.0 180.0 L 50.0 176.0 L 52.0 171.0 L 52.0 161.0 L 50.0 157.0 L 52.0 148.0 L 52.0 141.0 L 50.0 136.0 L 52.0 114.0 L 48.0 107.0 Z M 40.0 113.0 L 44.0 113.0 L 47.0 118.0 L 44.0 128.0 L 46.0 138.0 L 46.0 148.0 L 44.0 155.0 L 46.0 171.0 L 43.0 174.0 L 41.0 174.0 L 38.0 170.0 L 40.0 159.0 L 40.0 127.0 L 38.0 122.0 L 38.0 115.0 Z M 77.0 22.0 L 73.0 23.0 L 68.0 31.0 L 68.0 40.0 L 70.0 46.0 L 68.0 59.0 L 70.0 70.0 L 68.0 87.0 L 72.0 95.0 L 75.0 97.0 L 82.0 97.0 L 88.0 89.0 L 88.0 78.0 L 86.0 74.0 L 88.0 66.0 L 88.0 58.0 L 86.0 52.0 L 88.0 30.0 L 83.0 23.0 Z M 76.0 30.0 L 79.0 30.0 L 82.0 33.0 L 82.0 40.0 L 80.0 43.0 L 80.0 78.0 L 82.0 86.0 L 79.0 91.0 L 76.0 91.0 L 73.0 86.0 L 76.0 77.0 L 76.0 69.0 L 74.0 63.0 L 76.0 44.0 L 73.0 33.0 Z"/>
</svg>
