<svg xmlns="http://www.w3.org/2000/svg" viewBox="0 0 156 204" width="156" height="204" shape-rendering="geometricPrecision"><title>mahjong tile 13</title>
<path fill="#221815" fill-rule="evenodd" d="M 6.0 3.0 L 2.0 7.0 L 1.0 11.0 L 1.0 192.0 L 3.0 197.0 L 9.0 201.0 L 146.0 201.0 L 150.0 199.0 L 154.0 192.0 L 154.0 10.0 L 152.0 6.0 L 145.0 1.0 L 10.0 1.0 Z M 7.0 5.0 L 145.0 4.0 L 151.0 9.0 L 152.0 190.0 L 151.0 194.0 L 147.0 198.0 L 10.0 199.0 L 5.0 195.0 L 4.0 10.0 Z"/>
<path fill="#21983A" fill-rule="evenodd" d="M 99.0 105.0 L 95.0 108.0 L 92.0 115.0 L 92.0 121.0 L 95.0 129.0 L 92.0 144.0 L 95.0 156.0 L 92.0 162.0 L 92.0 168.0 L 96.0 177.0 L 104.0 180.0 L 111.0 175.0 L 113.0 168.0 L 111.0 159.0 L 111.0 125.0 L 113.0 117.0 L 111.0 109.0 L 108.0 106.0 Z M 101.0 112.0 L 104.0 112.0 L 107.0 115.0 L 107.0 122.0 L 105.0 125.0 L 105.0 160.0 L 107.0 168.0 L 103.0 174.0 L 99.0 172.0 L 100.0 124.0 L 98.0 116.0 Z M 49.0 105.0 L 44.0 109.0 L 42.0 114.0 L 42.0 122.0 L 45.0 129.0 L 42.0 142.0 L 42.0 147.0 L 44.0 150.0 L 42.0 169.0 L 47.0 178.0 L 54.0 180.0 L 60.0 176.0 L 62.0 171.0 L 62.0 160.0 L 60.0 155.0 L 62.0 148.0 L 60.0 131.0 L 62.0 123.0 L 61.0 109.0 L 58.0 106.0 Z M 51.0 112.0 L 57.0 115.0 L 57.0 121.0 L 54.0 128.0 L 56.0 138.0 L 54.0 158.0 L 57.0 167.0 L 56.0 171.0 L 53.0 174.0 L 51.0 174.0 L 48.0 170.0 L 50.0 160.0 L 50.0 125.0 L 48.0 121.0 L 48.0 115.0 Z M 99.0 23.0 L 94.0 28.0 L 92.0 34.0 L 92.0 39.0 L 95.0 47.0 L 93.0 57.0 L 93.0 67.0 L 95.0 74.0 L 93.0 77.0 L 92.0 86.0 L 94.0 92.0 L 98.0 97.0 L 105.0 98.0 L 111.0 93.0 L 113.0 86.0 L 111.0 77.0 L 111.0 44.0 L 113.0 35.0 L 111.0 27.0 L 108.0 24.0 Z M 101.0 31.0 L 105.0 31.0 L 107.0 33.0 L 107.0 40.0 L 105.0 44.0 L 105.0 79.0 L 107.0 82.0 L 107.0 87.0 L 103.0 92.0 L 99.0 90.0 L 100.0 42.0 L 98.0 34.0 Z M 49.0 23.0 L 45.0 26.0 L 42.0 32.0 L 42.0 41.0 L 45.0 48.0 L 42.0 60.0 L 44.0 69.0 L 42.0 88.0 L 44.0 93.0 L 48.0 97.0 L 55.0 98.0 L 61.0 93.0 L 62.0 78.0 L 60.0 73.0 L 62.0 66.0 L 60.0 50.0 L 62.0 31.0 L 58.0 24.0 Z M 50.0 31.0 L 54.0 31.0 L 57.0 34.0 L 57.0 39.0 L 54.0 46.0 L 56.0 56.0 L 54.0 76.0 L 57.0 85.0 L 56.0 89.0 L 53.0 92.0 L 51.0 92.0 L 48.0 88.0 L 50.0 79.0 L 50.0 43.0 L 48.0 39.0 L 48.0 33.0 Z"/>
</svg>
