<svg xmlns="http://www.w3.org/2000/svg" viewBox="0 0 155 205" width="155" height="205" shape-rendering="geometricPrecision"><title>mahjong tile 15</title>
<path fill="#221815" fill-rule="evenodd" d="M 4.0 4.0 L 0.0 9.0 L 0.0 195.0 L 8.0 202.0 L 147.0 201.0 L 151.0 197.0 L 153.0 192.0 L 153.0 12.0 L 151.0 7.0 L 144.0 2.0 L 9.0 2.0 Z M 6.0 6.0 L 9.0 4.0 L 143.0 4.0 L 150.0 10.0 L 150.0 194.0 L 147.0 198.0 L 142.0 200.0 L 10.0 200.0 L 4.0 196.0 L 2.0 191.0 L 2.0 13.0 Z"/>
<path fill="#21983A" fill-rule="evenodd" d="M 112.0 107.0 L 107.0 109.0 L 103.0 116.0 L 103.0 126.0 L 105.0 130.0 L 105.0 138.0 L 103.0 144.0 L 105.0 160.0 L 103.0 163.0 L 103.0 172.0 L 108.0 181.0 L 116.0 182.0 L 121.0 178.0 L 123.0 173.0 L 123.0 164.0 L 121.0 160.0 L 121.0 154.0 L 123.0 150.0 L 121.0 139.0 L 123.0 117.0 L 119.0 109.0 Z M 111.0 115.0 L 115.0 115.0 L 117.0 117.0 L 117.0 126.0 L 115.0 129.0 L 117.0 141.0 L 115.0 162.0 L 117.0 165.0 L 117.0 173.0 L 114.0 177.0 L 109.0 173.0 L 111.0 160.0 L 111.0 131.0 L 109.0 117.0 Z M 42.0 107.0 L 35.0 111.0 L 33.0 118.0 L 35.0 131.0 L 33.0 145.0 L 35.0 159.0 L 33.0 164.0 L 33.0 172.0 L 37.0 180.0 L 40.0 182.0 L 46.0 182.0 L 51.0 178.0 L 53.0 174.0 L 53.0 163.0 L 51.0 159.0 L 53.0 151.0 L 53.0 143.0 L 51.0 137.0 L 53.0 115.0 L 49.0 109.0 Z M 41.0 115.0 L 44.0 115.0 L 47.0 118.0 L 47.0 125.0 L 45.0 128.0 L 45.0 163.0 L 47.0 171.0 L 43.0 177.0 L 39.0 174.0 L 39.0 166.0 L 41.0 162.0 L 41.0 154.0 L 39.0 148.0 L 41.0 129.0 L 38.0 119.0 Z M 109.0 26.0 L 106.0 28.0 L 103.0 34.0 L 103.0 44.0 L 105.0 48.0 L 105.0 57.0 L 103.0 61.0 L 103.0 68.0 L 105.0 72.0 L 103.0 91.0 L 105.0 96.0 L 109.0 100.0 L 115.0 101.0 L 121.0 96.0 L 123.0 91.0 L 123.0 82.0 L 121.0 78.0 L 121.0 72.0 L 123.0 68.0 L 121.0 57.0 L 123.0 35.0 L 119.0 27.0 Z M 112.0 33.0 L 117.0 36.0 L 117.0 44.0 L 115.0 48.0 L 117.0 60.0 L 115.0 73.0 L 117.0 91.0 L 113.0 95.0 L 109.0 92.0 L 111.0 78.0 L 111.0 49.0 L 109.0 36.0 Z M 39.0 26.0 L 35.0 29.0 L 33.0 35.0 L 33.0 43.0 L 35.0 49.0 L 33.0 64.0 L 35.0 77.0 L 33.0 90.0 L 34.0 95.0 L 39.0 100.0 L 45.0 101.0 L 51.0 96.0 L 53.0 92.0 L 53.0 81.0 L 51.0 77.0 L 53.0 68.0 L 53.0 61.0 L 51.0 56.0 L 53.0 33.0 L 49.0 27.0 Z M 42.0 33.0 L 47.0 36.0 L 47.0 43.0 L 45.0 47.0 L 45.0 81.0 L 47.0 90.0 L 43.0 95.0 L 39.0 92.0 L 39.0 84.0 L 41.0 80.0 L 41.0 72.0 L 39.0 66.0 L 41.0 48.0 L 38.0 40.0 L 38.0 37.0 Z"/>
<path fill="#D11228" fill-rule="evenodd" d="M 76.0 66.0 L 68.0 74.0 L 68.0 86.0 L 70.0 89.0 L 68.0 110.0 L 70.0 114.0 L 70.0 119.0 L 68.0 121.0 L 68.0 133.0 L 74.0 141.0 L 82.0 141.0 L 87.0 136.0 L 88.0 122.0 L 86.0 118.0 L 86.0 113.0 L 88.0 110.0 L 86.0 95.0 L 88.0 76.0 L 85.0 69.0 L 80.0 66.0 Z M 80.0 74.0 L 83.0 78.0 L 80.0 88.0 L 82.0 103.0 L 80.0 122.0 L 82.0 125.0 L 82.0 132.0 L 77.0 136.0 L 74.0 133.0 L 74.0 126.0 L 76.0 122.0 L 76.0 112.0 L 74.0 106.0 L 76.0 88.0 L 73.0 78.0 L 77.0 74.0 Z"/>
</svg>
