<svg xmlns="http://www.w3.org/2000/svg" viewBox="0 0 157 204" width="157" height="204" shape-rendering="geometricPrecision"><title>mahjong tile 06</title>
<path fill="#221815" fill-rule="evenodd" d="M 7.0 3.0 L 2.0 9.0 L 2.0 194.0 L 5.0 199.0 L 8.0 201.0 L 150.0 200.0 L 154.0 193.0 L 153.0 7.0 L 146.0 2.0 Z M 9.0 5.0 L 145.0 4.0 L 151.0 9.0 L 152.0 192.0 L 148.0 198.0 L 10.0 199.0 L 5.0 195.0 L 4.0 10.0 Z"/>
<path fill="#21983A" fill-rule="evenodd" d="M 57.0 47.0 L 56.0 51.0 L 60.0 52.0 L 61.0 48.0 Z M 95.0 40.0 L 89.0 44.0 L 88.0 53.0 L 91.0 57.0 L 98.0 59.0 L 105.0 55.0 L 107.0 48.0 L 102.0 41.0 Z M 92.0 47.0 L 95.0 44.0 L 99.0 44.0 L 103.0 48.0 L 103.0 51.0 L 100.0 54.0 L 96.0 55.0 L 92.0 51.0 L 94.0 50.0 L 98.0 52.0 L 100.0 48.0 L 96.0 47.0 L 93.0 49.0 Z M 39.0 47.0 L 41.0 58.0 L 47.0 65.0 L 53.0 68.0 L 68.0 67.0 L 77.0 56.0 L 85.0 65.0 L 91.0 68.0 L 104.0 68.0 L 113.0 61.0 L 116.0 54.0 L 116.0 45.0 L 114.0 39.0 L 108.0 33.0 L 99.0 30.0 L 86.0 33.0 L 78.0 43.0 L 76.0 42.0 L 75.0 38.0 L 68.0 32.0 L 61.0 30.0 L 52.0 31.0 L 43.0 38.0 Z M 53.0 47.0 L 57.0 44.0 L 60.0 44.0 L 64.0 47.0 L 64.0 52.0 L 60.0 55.0 L 57.0 55.0 L 53.0 51.0 Z M 94.0 37.0 L 100.0 37.0 L 104.0 39.0 L 110.0 47.0 L 110.0 52.0 L 107.0 57.0 L 99.0 62.0 L 95.0 62.0 L 89.0 59.0 L 85.0 53.0 L 86.0 43.0 Z M 56.0 37.0 L 64.0 38.0 L 69.0 42.0 L 71.0 46.0 L 70.0 55.0 L 61.0 62.0 L 54.0 61.0 L 47.0 54.0 L 49.0 52.0 L 53.0 57.0 L 59.0 59.0 L 63.0 58.0 L 68.0 53.0 L 67.0 44.0 L 61.0 40.0 L 56.0 40.0 L 51.0 43.0 L 49.0 48.0 L 47.0 47.0 L 48.0 43.0 Z"/>
<path fill="#D11228" fill-rule="evenodd" d="M 94.0 145.0 L 89.0 149.0 L 88.0 157.0 L 90.0 161.0 L 98.0 164.0 L 105.0 160.0 L 107.0 153.0 L 102.0 146.0 Z M 95.0 149.0 L 99.0 149.0 L 103.0 153.0 L 102.0 157.0 L 99.0 160.0 L 96.0 160.0 L 92.0 157.0 L 93.0 155.0 L 96.0 157.0 L 100.0 155.0 L 99.0 152.0 L 96.0 152.0 L 94.0 154.0 L 92.0 152.0 Z M 58.0 116.0 L 56.0 120.0 L 60.0 122.0 L 61.0 117.0 Z M 93.0 110.0 L 88.0 116.0 L 88.0 123.0 L 93.0 128.0 L 102.0 128.0 L 106.0 123.0 L 106.0 115.0 L 101.0 110.0 Z M 96.0 113.0 L 100.0 114.0 L 103.0 118.0 L 102.0 122.0 L 99.0 125.0 L 96.0 125.0 L 92.0 122.0 L 93.0 120.0 L 96.0 122.0 L 100.0 120.0 L 98.0 116.0 L 94.0 118.0 L 92.0 117.0 Z M 47.0 103.0 L 42.0 109.0 L 39.0 117.0 L 39.0 122.0 L 42.0 129.0 L 49.0 136.0 L 40.0 148.0 L 40.0 161.0 L 43.0 166.0 L 52.0 173.0 L 65.0 173.0 L 69.0 171.0 L 78.0 161.0 L 84.0 169.0 L 91.0 173.0 L 104.0 173.0 L 108.0 171.0 L 114.0 165.0 L 116.0 159.0 L 116.0 149.0 L 114.0 144.0 L 107.0 137.0 L 113.0 131.0 L 116.0 124.0 L 116.0 115.0 L 112.0 106.0 L 102.0 100.0 L 93.0 100.0 L 86.0 103.0 L 77.0 113.0 L 75.0 108.0 L 66.0 101.0 L 54.0 100.0 Z M 53.0 152.0 L 57.0 149.0 L 61.0 149.0 L 64.0 152.0 L 64.0 157.0 L 58.0 160.0 L 56.0 158.0 L 59.0 157.0 L 61.0 153.0 L 57.0 152.0 L 57.0 157.0 L 55.0 158.0 L 53.0 156.0 Z M 94.0 142.0 L 103.0 143.0 L 110.0 152.0 L 110.0 157.0 L 107.0 162.0 L 99.0 167.0 L 95.0 167.0 L 89.0 164.0 L 85.0 158.0 L 85.0 151.0 L 87.0 147.0 Z M 55.0 142.0 L 62.0 142.0 L 66.0 144.0 L 71.0 151.0 L 70.0 160.0 L 65.0 165.0 L 60.0 167.0 L 54.0 166.0 L 47.0 160.0 L 47.0 158.0 L 49.0 157.0 L 53.0 162.0 L 59.0 164.0 L 63.0 163.0 L 68.0 157.0 L 68.0 151.0 L 62.0 145.0 L 56.0 145.0 L 52.0 147.0 L 48.0 153.0 L 47.0 152.0 L 48.0 148.0 Z M 78.0 125.0 L 83.0 133.0 L 88.0 136.0 L 77.0 148.0 L 75.0 143.0 L 68.0 137.0 Z M 57.0 113.0 L 60.0 113.0 L 64.0 117.0 L 64.0 121.0 L 60.0 125.0 L 57.0 125.0 L 53.0 121.0 L 53.0 117.0 Z M 49.0 113.0 L 50.0 124.0 L 57.0 129.0 L 56.0 131.0 L 51.0 129.0 L 47.0 124.0 L 46.0 117.0 Z M 93.0 107.0 L 102.0 107.0 L 109.0 114.0 L 110.0 122.0 L 102.0 131.0 L 93.0 131.0 L 86.0 125.0 L 86.0 113.0 Z M 54.0 107.0 L 63.0 107.0 L 71.0 115.0 L 71.0 124.0 L 63.0 131.0 L 60.0 131.0 L 59.0 129.0 L 63.0 128.0 L 67.0 124.0 L 68.0 116.0 L 63.0 110.0 L 60.0 109.0 L 55.0 110.0 L 50.0 114.0 L 49.0 111.0 Z"/>
</svg>
