<svg xmlns="http://www.w3.org/2000/svg" viewBox="0 0 157 204" width="157" height="204" shape-rendering="geometricPrecision"><title>mahjong tile 08</title>
<path fill="#221815" fill-rule="evenodd" d="M 7.0 3.0 L 2.0 10.0 L 3.0 197.0 L 8.0 201.0 L 150.0 200.0 L 154.0 194.0 L 154.0 10.0 L 149.0 3.0 L 145.0 2.0 Z M 9.0 5.0 L 145.0 4.0 L 151.0 9.0 L 152.0 193.0 L 148.0 198.0 L 10.0 199.0 L 5.0 195.0 L 4.0 11.0 Z"/>
<path fill="#2926A5" fill-rule="evenodd" d="M 57.0 150.0 L 56.0 154.0 L 60.0 155.0 L 61.0 151.0 Z M 93.0 144.0 L 88.0 151.0 L 89.0 157.0 L 96.0 162.0 L 103.0 161.0 L 106.0 158.0 L 107.0 154.0 L 106.0 148.0 L 99.0 143.0 Z M 96.0 147.0 L 100.0 147.0 L 103.0 150.0 L 103.0 155.0 L 100.0 158.0 L 98.0 157.0 L 100.0 154.0 L 99.0 150.0 L 95.0 151.0 L 95.0 154.0 L 97.0 156.0 L 96.0 157.0 L 92.0 154.0 L 92.0 151.0 Z M 96.0 116.0 L 95.0 120.0 L 99.0 121.0 L 100.0 117.0 Z M 57.0 116.0 L 56.0 120.0 L 60.0 121.0 L 61.0 117.0 Z M 99.0 82.0 L 95.0 84.0 L 97.0 88.0 L 100.0 86.0 Z M 57.0 82.0 L 56.0 86.0 L 59.0 88.0 L 61.0 84.0 Z M 57.0 48.0 L 56.0 52.0 L 59.0 54.0 L 61.0 50.0 Z M 94.0 42.0 L 89.0 47.0 L 88.0 53.0 L 94.0 60.0 L 101.0 60.0 L 107.0 54.0 L 107.0 48.0 L 101.0 42.0 Z M 99.0 48.0 L 101.0 47.0 L 102.0 49.0 L 101.0 50.0 Z M 97.0 45.0 L 100.0 47.0 L 97.0 48.0 L 95.0 52.0 L 97.0 54.0 L 101.0 51.0 L 103.0 52.0 L 99.0 57.0 L 95.0 56.0 L 92.0 52.0 L 92.0 49.0 Z M 54.0 32.0 L 43.0 39.0 L 39.0 49.0 L 40.0 57.0 L 43.0 63.0 L 48.0 67.0 L 48.0 69.0 L 43.0 73.0 L 39.0 83.0 L 40.0 91.0 L 44.0 98.0 L 48.0 101.0 L 42.0 108.0 L 39.0 117.0 L 40.0 125.0 L 43.0 131.0 L 48.0 135.0 L 41.0 144.0 L 39.0 150.0 L 41.0 161.0 L 48.0 169.0 L 59.0 172.0 L 70.0 168.0 L 79.0 157.0 L 82.0 164.0 L 89.0 170.0 L 95.0 172.0 L 106.0 170.0 L 113.0 164.0 L 117.0 156.0 L 116.0 147.0 L 108.0 136.0 L 117.0 122.0 L 115.0 110.0 L 108.0 103.0 L 108.0 101.0 L 114.0 95.0 L 117.0 87.0 L 115.0 76.0 L 108.0 69.0 L 108.0 67.0 L 112.0 64.0 L 116.0 57.0 L 116.0 45.0 L 112.0 38.0 L 105.0 33.0 L 93.0 32.0 L 87.0 35.0 L 81.0 41.0 L 80.0 46.0 L 78.0 47.0 L 74.0 40.0 L 67.0 34.0 L 62.0 32.0 Z M 57.0 147.0 L 60.0 147.0 L 64.0 151.0 L 64.0 154.0 L 61.0 158.0 L 56.0 158.0 L 53.0 155.0 L 53.0 151.0 Z M 95.0 140.0 L 104.0 142.0 L 109.0 147.0 L 110.0 151.0 L 109.0 158.0 L 101.0 165.0 L 92.0 164.0 L 85.0 155.0 L 87.0 146.0 Z M 53.0 141.0 L 61.0 140.0 L 70.0 148.0 L 70.0 152.0 L 68.0 153.0 L 67.0 148.0 L 64.0 145.0 L 56.0 143.0 L 49.0 149.0 L 49.0 156.0 L 55.0 162.0 L 63.0 161.0 L 69.0 154.0 L 70.0 157.0 L 64.0 164.0 L 52.0 164.0 L 46.0 156.0 L 46.0 149.0 Z M 78.0 123.0 L 80.0 124.0 L 81.0 129.0 L 88.0 136.0 L 81.0 143.0 L 79.0 149.0 L 76.0 147.0 L 73.0 140.0 L 68.0 136.0 Z M 96.0 113.0 L 99.0 113.0 L 103.0 117.0 L 103.0 121.0 L 98.0 125.0 L 95.0 124.0 L 92.0 120.0 L 92.0 117.0 Z M 57.0 113.0 L 60.0 113.0 L 64.0 117.0 L 64.0 121.0 L 59.0 125.0 L 57.0 125.0 L 53.0 121.0 L 53.0 117.0 Z M 93.0 107.0 L 95.0 107.0 L 96.0 109.0 L 90.0 113.0 L 88.0 120.0 L 94.0 128.0 L 101.0 128.0 L 106.0 124.0 L 107.0 121.0 L 106.0 114.0 L 98.0 108.0 L 103.0 107.0 L 109.0 113.0 L 109.0 124.0 L 101.0 131.0 L 94.0 131.0 L 86.0 124.0 L 86.0 114.0 Z M 53.0 107.0 L 63.0 107.0 L 70.0 115.0 L 70.0 117.0 L 68.0 118.0 L 66.0 113.0 L 59.0 109.0 L 54.0 110.0 L 50.0 114.0 L 50.0 124.0 L 55.0 128.0 L 61.0 128.0 L 67.0 123.0 L 68.0 120.0 L 70.0 121.0 L 70.0 124.0 L 62.0 131.0 L 52.0 130.0 L 46.0 123.0 L 46.0 115.0 Z M 79.0 89.0 L 82.0 96.0 L 88.0 102.0 L 81.0 109.0 L 78.0 115.0 L 68.0 101.0 Z M 96.0 79.0 L 99.0 79.0 L 103.0 83.0 L 103.0 87.0 L 98.0 91.0 L 95.0 90.0 L 92.0 86.0 L 93.0 82.0 Z M 57.0 79.0 L 61.0 80.0 L 64.0 83.0 L 63.0 88.0 L 59.0 91.0 L 57.0 91.0 L 53.0 87.0 L 53.0 83.0 Z M 93.0 73.0 L 95.0 73.0 L 96.0 75.0 L 89.0 81.0 L 88.0 87.0 L 94.0 94.0 L 101.0 94.0 L 107.0 88.0 L 106.0 80.0 L 103.0 77.0 L 99.0 76.0 L 99.0 73.0 L 104.0 74.0 L 110.0 82.0 L 108.0 92.0 L 102.0 97.0 L 93.0 97.0 L 86.0 90.0 L 86.0 80.0 Z M 53.0 73.0 L 57.0 73.0 L 58.0 75.0 L 54.0 76.0 L 50.0 80.0 L 49.0 88.0 L 55.0 94.0 L 62.0 94.0 L 67.0 89.0 L 68.0 85.0 L 66.0 79.0 L 59.0 75.0 L 60.0 73.0 L 63.0 73.0 L 70.0 80.0 L 70.0 90.0 L 63.0 97.0 L 54.0 97.0 L 47.0 91.0 L 46.0 81.0 Z M 78.0 55.0 L 80.0 56.0 L 81.0 61.0 L 87.0 67.0 L 87.0 69.0 L 81.0 75.0 L 79.0 81.0 L 68.0 68.0 Z M 58.0 45.0 L 61.0 46.0 L 64.0 50.0 L 64.0 53.0 L 59.0 57.0 L 57.0 57.0 L 53.0 53.0 L 53.0 49.0 Z M 94.0 39.0 L 101.0 39.0 L 105.0 41.0 L 110.0 49.0 L 108.0 58.0 L 104.0 62.0 L 99.0 64.0 L 92.0 62.0 L 85.0 54.0 L 86.0 46.0 Z M 53.0 39.0 L 62.0 39.0 L 70.0 46.0 L 69.0 51.0 L 66.0 45.0 L 62.0 42.0 L 55.0 42.0 L 50.0 46.0 L 49.0 54.0 L 55.0 60.0 L 62.0 60.0 L 66.0 57.0 L 68.0 52.0 L 70.0 53.0 L 70.0 56.0 L 60.0 64.0 L 52.0 62.0 L 46.0 55.0 L 46.0 47.0 Z"/>
</svg>
