<svg xmlns="http://www.w3.org/2000/svg" viewBox="0 0 157 202" width="157" height="202" shape-rendering="geometricPrecision"><title>mahjong tile 01</title>
<path fill="#221815" fill-rule="evenodd" d="M 8.0 0.0 L 2.0 7.0 L 2.0 192.0 L 5.0 197.0 L 9.0 199.0 L 147.0 199.0 L 151.0 197.0 L 154.0 191.0 L 153.0 5.0 L 148.0 0.0 Z M 9.0 3.0 L 145.0 2.0 L 151.0 7.0 L 152.0 190.0 L 148.0 196.0 L 10.0 197.0 L 5.0 193.0 L 4.0 8.0 Z"/>
<path fill="#D11228" fill-rule="evenodd" d="M 60.0 51.0 L 45.0 60.0 L 34.0 73.0 L 27.0 91.0 L 28.0 113.0 L 33.0 122.0 L 33.0 125.0 L 39.0 133.0 L 57.0 147.0 L 75.0 151.0 L 96.0 148.0 L 112.0 138.0 L 125.0 121.0 L 129.0 106.0 L 129.0 92.0 L 126.0 81.0 L 118.0 67.0 L 107.0 57.0 L 100.0 53.0 L 87.0 49.0 L 69.0 49.0 Z M 74.0 144.0 L 78.0 139.0 L 82.0 143.0 L 80.0 145.0 Z M 91.0 143.0 L 94.0 136.0 L 100.0 139.0 L 93.0 144.0 Z M 57.0 139.0 L 62.0 136.0 L 64.0 138.0 L 64.0 142.0 L 62.0 143.0 Z M 106.0 133.0 L 105.0 129.0 L 107.0 127.0 L 111.0 127.0 L 113.0 129.0 L 108.0 134.0 Z M 43.0 128.0 L 48.0 127.0 L 50.0 129.0 L 50.0 134.0 L 49.0 135.0 Z M 82.0 126.0 L 86.0 126.0 L 89.0 130.0 L 89.0 134.0 L 86.0 139.0 L 80.0 134.0 L 80.0 128.0 Z M 74.0 126.0 L 76.0 128.0 L 76.0 134.0 L 72.0 139.0 L 70.0 139.0 L 67.0 132.0 L 71.0 126.0 Z M 94.0 121.0 L 96.0 121.0 L 101.0 126.0 L 102.0 131.0 L 100.0 133.0 L 97.0 133.0 L 92.0 129.0 L 91.0 124.0 Z M 62.0 121.0 L 65.0 124.0 L 65.0 127.0 L 60.0 133.0 L 56.0 134.0 L 54.0 132.0 L 54.0 127.0 L 60.0 121.0 Z M 35.0 114.0 L 37.0 113.0 L 42.0 116.0 L 37.0 120.0 Z M 120.0 112.0 L 122.0 116.0 L 118.0 120.0 L 114.0 116.0 Z M 99.0 116.0 L 104.0 112.0 L 111.0 117.0 L 112.0 121.0 L 110.0 123.0 L 105.0 123.0 Z M 53.0 112.0 L 56.0 115.0 L 55.0 120.0 L 51.0 123.0 L 46.0 123.0 L 44.0 121.0 L 46.0 116.0 Z M 104.0 103.0 L 106.0 101.0 L 112.0 101.0 L 117.0 105.0 L 117.0 108.0 L 110.0 111.0 L 104.0 107.0 Z M 38.0 108.0 L 38.0 106.0 L 44.0 101.0 L 49.0 101.0 L 52.0 106.0 L 49.0 110.0 L 46.0 111.0 L 40.0 110.0 Z M 33.0 96.0 L 38.0 100.0 L 34.0 104.0 L 32.0 103.0 Z M 122.0 95.0 L 124.0 97.0 L 124.0 102.0 L 122.0 104.0 L 118.0 100.0 Z M 110.0 88.0 L 115.0 89.0 L 117.0 93.0 L 112.0 98.0 L 106.0 98.0 L 104.0 96.0 L 104.0 92.0 Z M 38.0 92.0 L 45.0 88.0 L 50.0 90.0 L 52.0 93.0 L 49.0 98.0 L 44.0 98.0 Z M 118.0 79.0 L 121.0 82.0 L 120.0 87.0 L 114.0 83.0 Z M 37.0 79.0 L 41.0 83.0 L 40.0 86.0 L 35.0 85.0 Z M 110.0 76.0 L 112.0 79.0 L 107.0 85.0 L 102.0 86.0 L 99.0 83.0 L 105.0 76.0 Z M 71.0 77.0 L 79.0 76.0 L 87.0 78.0 L 92.0 81.0 L 99.0 90.0 L 101.0 102.0 L 99.0 109.0 L 91.0 119.0 L 85.0 122.0 L 72.0 122.0 L 67.0 120.0 L 60.0 114.0 L 55.0 104.0 L 55.0 95.0 L 59.0 86.0 Z M 44.0 78.0 L 46.0 76.0 L 51.0 76.0 L 56.0 81.0 L 56.0 84.0 L 52.0 87.0 L 45.0 82.0 Z M 56.0 66.0 L 61.0 67.0 L 65.0 73.0 L 65.0 75.0 L 61.0 79.0 L 54.0 72.0 L 54.0 68.0 Z M 106.0 66.0 L 108.0 65.0 L 113.0 71.0 L 107.0 72.0 L 105.0 70.0 Z M 99.0 65.0 L 101.0 67.0 L 101.0 73.0 L 97.0 78.0 L 93.0 78.0 L 91.0 76.0 L 91.0 72.0 L 95.0 67.0 Z M 49.0 65.0 L 50.0 70.0 L 48.0 72.0 L 43.0 72.0 L 42.0 71.0 L 45.0 67.0 Z M 85.0 60.0 L 88.0 62.0 L 89.0 67.0 L 86.0 73.0 L 82.0 73.0 L 80.0 71.0 L 80.0 65.0 Z M 70.0 60.0 L 76.0 65.0 L 76.0 71.0 L 74.0 73.0 L 70.0 73.0 L 67.0 68.0 L 67.0 64.0 Z M 92.0 58.0 L 96.0 57.0 L 98.0 60.0 L 94.0 63.0 L 92.0 61.0 Z M 64.0 56.0 L 64.0 61.0 L 61.0 63.0 L 58.0 59.0 Z M 73.0 54.0 L 80.0 53.0 L 82.0 55.0 L 78.0 60.0 Z"/>
<path fill="#2926A5" fill-rule="evenodd" d="M 72.0 78.0 L 60.0 87.0 L 56.0 96.0 L 56.0 103.0 L 60.0 112.0 L 66.0 118.0 L 72.0 121.0 L 84.0 121.0 L 91.0 117.0 L 98.0 109.0 L 98.0 90.0 L 92.0 83.0 L 86.0 79.0 Z M 71.0 82.0 L 73.0 82.0 L 74.0 84.0 L 67.0 88.0 L 63.0 95.0 L 64.0 98.0 L 75.0 99.0 L 74.0 101.0 L 63.0 102.0 L 64.0 107.0 L 71.0 114.0 L 76.0 114.0 L 75.0 83.0 L 80.0 83.0 L 80.0 115.0 L 90.0 110.0 L 93.0 103.0 L 92.0 101.0 L 81.0 100.0 L 82.0 98.0 L 93.0 97.0 L 92.0 92.0 L 82.0 83.0 L 85.0 82.0 L 94.0 90.0 L 96.0 96.0 L 96.0 104.0 L 94.0 109.0 L 85.0 117.0 L 71.0 117.0 L 62.0 109.0 L 60.0 105.0 L 60.0 94.0 L 63.0 89.0 Z"/>
</svg>
