<svg xmlns="http://www.w3.org/2000/svg" viewBox="0 0 157 202" width="157" height="202" shape-rendering="geometricPrecision"><title>mahjong tile 03</title>
<path fill="#221815" fill-rule="evenodd" d="M 5.0 2.0 L 2.0 8.0 L 2.0 191.0 L 4.0 196.0 L 9.0 199.0 L 150.0 198.0 L 154.0 192.0 L 154.0 7.0 L 148.0 0.0 L 8.0 0.0 Z M 9.0 3.0 L 145.0 2.0 L 151.0 7.0 L 152.0 191.0 L 146.0 197.0 L 10.0 197.0 L 6.0 194.0 L 4.0 190.0 L 4.0 9.0 Z"/>
<path fill="#21983A" fill-rule="evenodd" d="M 100.0 139.0 L 99.0 144.0 L 104.0 145.0 L 105.0 140.0 Z M 97.0 132.0 L 92.0 137.0 L 92.0 148.0 L 98.0 153.0 L 106.0 153.0 L 112.0 148.0 L 112.0 136.0 L 105.0 131.0 Z M 100.0 136.0 L 106.0 137.0 L 109.0 141.0 L 108.0 145.0 L 103.0 149.0 L 99.0 148.0 L 95.0 143.0 L 96.0 139.0 Z M 96.0 120.0 L 89.0 123.0 L 82.0 131.0 L 80.0 136.0 L 80.0 148.0 L 83.0 155.0 L 88.0 160.0 L 95.0 164.0 L 105.0 165.0 L 113.0 162.0 L 121.0 155.0 L 124.0 148.0 L 124.0 136.0 L 121.0 129.0 L 115.0 123.0 L 108.0 120.0 Z M 97.0 128.0 L 107.0 128.0 L 116.0 137.0 L 116.0 147.0 L 114.0 151.0 L 108.0 156.0 L 96.0 156.0 L 90.0 151.0 L 88.0 147.0 L 88.0 137.0 Z"/>
<path fill="#D11228" fill-rule="evenodd" d="M 76.0 96.0 L 75.0 101.0 L 79.0 102.0 L 80.0 97.0 Z M 72.0 89.0 L 67.0 95.0 L 67.0 103.0 L 72.0 109.0 L 81.0 110.0 L 87.0 105.0 L 89.0 97.0 L 83.0 89.0 Z M 75.0 93.0 L 80.0 93.0 L 84.0 97.0 L 84.0 101.0 L 79.0 106.0 L 76.0 106.0 L 71.0 101.0 L 71.0 97.0 Z M 66.0 79.0 L 59.0 85.0 L 55.0 94.0 L 55.0 104.0 L 59.0 113.0 L 66.0 119.0 L 72.0 121.0 L 84.0 121.0 L 89.0 119.0 L 95.0 114.0 L 100.0 104.0 L 100.0 95.0 L 98.0 89.0 L 87.0 78.0 L 72.0 77.0 Z M 76.0 84.0 L 83.0 85.0 L 92.0 94.0 L 92.0 103.0 L 90.0 107.0 L 85.0 112.0 L 78.0 114.0 L 70.0 112.0 L 63.0 103.0 L 63.0 95.0 L 66.0 90.0 L 72.0 85.0 Z"/>
<path fill="#2926A5" fill-rule="evenodd" d="M 53.0 54.0 L 51.0 56.0 L 51.0 59.0 L 56.0 60.0 L 57.0 56.0 Z M 51.0 46.0 L 47.0 48.0 L 43.0 53.0 L 43.0 60.0 L 47.0 66.0 L 51.0 68.0 L 57.0 68.0 L 63.0 64.0 L 65.0 55.0 L 61.0 48.0 L 57.0 46.0 Z M 53.0 50.0 L 57.0 51.0 L 60.0 54.0 L 60.0 60.0 L 55.0 64.0 L 50.0 63.0 L 47.0 59.0 L 47.0 55.0 Z M 52.0 34.0 L 43.0 37.0 L 36.0 43.0 L 32.0 50.0 L 31.0 60.0 L 34.0 68.0 L 40.0 75.0 L 48.0 79.0 L 56.0 80.0 L 67.0 76.0 L 73.0 70.0 L 76.0 63.0 L 76.0 51.0 L 72.0 43.0 L 68.0 39.0 L 60.0 35.0 Z M 48.0 43.0 L 60.0 43.0 L 65.0 47.0 L 69.0 55.0 L 68.0 63.0 L 63.0 69.0 L 57.0 72.0 L 48.0 71.0 L 40.0 63.0 L 40.0 51.0 Z"/>
</svg>
