<svg xmlns="http://www.w3.org/2000/svg" viewBox="0 0 157 202" width="157" height="202" shape-rendering="geometricPrecision"><title>mahjong tile 04</title>
<path fill="#221815" fill-rule="evenodd" d="M 8.0 0.0 L 2.0 8.0 L 2.0 192.0 L 5.0 197.0 L 9.0 199.0 L 150.0 198.0 L 154.0 191.0 L 154.0 8.0 L 152.0 3.0 L 148.0 0.0 Z M 9.0 3.0 L 145.0 2.0 L 151.0 7.0 L 152.0 190.0 L 148.0 196.0 L 10.0 197.0 L 4.0 191.0 L 4.0 9.0 Z"/>
<path fill="#21983A" fill-rule="evenodd" d="M 96.0 134.0 L 93.0 139.0 L 94.0 147.0 L 99.0 151.0 L 107.0 150.0 L 111.0 146.0 L 112.0 142.0 L 110.0 136.0 L 106.0 133.0 Z M 105.0 137.0 L 108.0 143.0 L 104.0 147.0 L 100.0 147.0 L 98.0 144.0 L 104.0 144.0 L 105.0 141.0 L 103.0 138.0 Z M 97.0 140.0 L 99.0 137.0 L 101.0 138.0 L 99.0 141.0 Z M 96.0 123.0 L 92.0 125.0 L 83.0 136.0 L 84.0 150.0 L 91.0 158.0 L 95.0 160.0 L 110.0 160.0 L 119.0 152.0 L 121.0 146.0 L 120.0 134.0 L 116.0 128.0 L 108.0 123.0 Z M 102.0 129.0 L 108.0 131.0 L 115.0 140.0 L 113.0 148.0 L 106.0 154.0 L 96.0 153.0 L 90.0 145.0 L 90.0 138.0 L 92.0 134.0 Z M 53.0 55.0 L 51.0 58.0 L 55.0 60.0 L 57.0 56.0 Z M 47.0 39.0 L 38.0 46.0 L 35.0 53.0 L 35.0 62.0 L 39.0 70.0 L 45.0 75.0 L 61.0 76.0 L 71.0 67.0 L 73.0 63.0 L 73.0 52.0 L 70.0 46.0 L 65.0 41.0 L 55.0 38.0 Z M 42.0 59.0 L 44.0 58.0 L 48.0 65.0 L 54.0 67.0 L 60.0 65.0 L 64.0 59.0 L 66.0 60.0 L 66.0 62.0 L 61.0 68.0 L 52.0 70.0 L 44.0 65.0 Z M 48.0 56.0 L 52.0 52.0 L 56.0 52.0 L 60.0 56.0 L 60.0 59.0 L 57.0 62.0 L 53.0 63.0 L 48.0 59.0 Z M 42.0 53.0 L 47.0 47.0 L 51.0 45.0 L 58.0 45.0 L 66.0 52.0 L 66.0 55.0 L 64.0 56.0 L 63.0 53.0 L 57.0 48.0 L 51.0 48.0 L 45.0 53.0 L 44.0 57.0 L 42.0 56.0 Z"/>
<path fill="#2926A5" fill-rule="evenodd" d="M 53.0 139.0 L 51.0 143.0 L 56.0 144.0 L 57.0 141.0 Z M 48.0 134.0 L 45.0 138.0 L 46.0 147.0 L 51.0 151.0 L 59.0 150.0 L 63.0 146.0 L 62.0 136.0 L 58.0 133.0 Z M 51.0 137.0 L 57.0 137.0 L 60.0 140.0 L 60.0 144.0 L 56.0 147.0 L 52.0 147.0 L 48.0 143.0 Z M 48.0 123.0 L 39.0 129.0 L 35.0 137.0 L 36.0 149.0 L 38.0 153.0 L 47.0 160.0 L 61.0 160.0 L 70.0 153.0 L 73.0 147.0 L 72.0 134.0 L 69.0 129.0 L 62.0 124.0 Z M 47.0 131.0 L 55.0 129.0 L 61.0 131.0 L 66.0 137.0 L 66.0 147.0 L 63.0 151.0 L 58.0 154.0 L 50.0 154.0 L 43.0 148.0 L 42.0 137.0 Z M 99.0 48.0 L 93.0 54.0 L 93.0 61.0 L 98.0 66.0 L 106.0 66.0 L 111.0 61.0 L 111.0 54.0 L 107.0 49.0 Z M 100.0 52.0 L 104.0 52.0 L 108.0 57.0 L 104.0 63.0 L 100.0 63.0 L 97.0 60.0 L 98.0 58.0 L 101.0 60.0 L 105.0 58.0 L 103.0 55.0 L 99.0 57.0 L 97.0 56.0 Z M 95.0 39.0 L 86.0 46.0 L 83.0 52.0 L 84.0 65.0 L 89.0 72.0 L 96.0 76.0 L 108.0 76.0 L 115.0 72.0 L 120.0 65.0 L 121.0 54.0 L 119.0 47.0 L 109.0 39.0 Z M 99.0 45.0 L 108.0 46.0 L 113.0 51.0 L 115.0 56.0 L 112.0 65.0 L 104.0 70.0 L 97.0 69.0 L 92.0 65.0 L 90.0 61.0 L 91.0 51.0 Z"/>
</svg>
