<svg xmlns="http://www.w3.org/2000/svg" viewBox="0 0 156 202" width="156" height="202" shape-rendering="geometricPrecision"><title>mahjong tile 05</title>
<path fill="#221815" fill-rule="evenodd" d="M 7.0 0.0 L 1.0 8.0 L 1.0 191.0 L 3.0 195.0 L 8.0 199.0 L 149.0 198.0 L 154.0 191.0 L 154.0 9.0 L 151.0 3.0 L 148.0 0.0 Z M 8.0 3.0 L 145.0 2.0 L 151.0 7.0 L 151.0 192.0 L 147.0 196.0 L 10.0 197.0 L 4.0 192.0 L 4.0 7.0 Z"/>
<path fill="#21983A" fill-rule="evenodd" d="M 101.0 139.0 L 99.0 143.0 L 103.0 144.0 L 104.0 140.0 Z M 97.0 133.0 L 92.0 139.0 L 93.0 147.0 L 98.0 151.0 L 104.0 151.0 L 110.0 147.0 L 110.0 137.0 L 105.0 133.0 Z M 101.0 136.0 L 107.0 140.0 L 107.0 143.0 L 104.0 147.0 L 99.0 147.0 L 96.0 144.0 L 96.0 140.0 Z M 95.0 123.0 L 90.0 126.0 L 84.0 133.0 L 82.0 140.0 L 84.0 151.0 L 89.0 157.0 L 94.0 160.0 L 109.0 160.0 L 115.0 156.0 L 120.0 148.0 L 120.0 135.0 L 117.0 130.0 L 108.0 123.0 Z M 101.0 129.0 L 109.0 132.0 L 114.0 140.0 L 112.0 149.0 L 105.0 154.0 L 98.0 154.0 L 94.0 152.0 L 89.0 145.0 L 89.0 138.0 L 95.0 131.0 Z M 52.0 55.0 L 51.0 59.0 L 55.0 60.0 L 56.0 56.0 Z M 47.0 50.0 L 44.0 56.0 L 46.0 64.0 L 50.0 66.0 L 58.0 66.0 L 63.0 59.0 L 61.0 51.0 L 56.0 48.0 Z M 51.0 52.0 L 55.0 52.0 L 59.0 56.0 L 59.0 59.0 L 55.0 63.0 L 52.0 63.0 L 48.0 60.0 L 48.0 55.0 Z M 44.0 40.0 L 40.0 43.0 L 35.0 51.0 L 34.0 61.0 L 37.0 68.0 L 47.0 76.0 L 60.0 76.0 L 64.0 74.0 L 70.0 68.0 L 72.0 63.0 L 71.0 48.0 L 61.0 39.0 L 52.0 38.0 Z M 50.0 45.0 L 59.0 46.0 L 66.0 55.0 L 64.0 64.0 L 56.0 70.0 L 51.0 70.0 L 45.0 67.0 L 41.0 60.0 L 43.0 50.0 Z"/>
<path fill="#D11228" fill-rule="evenodd" d="M 75.0 90.0 L 68.0 96.0 L 68.0 103.0 L 74.0 109.0 L 81.0 109.0 L 85.0 106.0 L 87.0 97.0 L 82.0 91.0 Z M 72.0 98.0 L 75.0 94.0 L 79.0 94.0 L 83.0 98.0 L 83.0 101.0 L 79.0 104.0 L 78.0 103.0 L 80.0 101.0 L 80.0 98.0 L 76.0 97.0 L 75.0 101.0 L 79.0 104.0 L 75.0 105.0 L 72.0 102.0 Z M 76.0 80.0 L 71.0 81.0 L 63.0 86.0 L 58.0 96.0 L 58.0 103.0 L 64.0 114.0 L 74.0 119.0 L 81.0 119.0 L 91.0 114.0 L 96.0 106.0 L 97.0 97.0 L 94.0 89.0 L 88.0 83.0 Z M 75.0 87.0 L 83.0 88.0 L 90.0 96.0 L 89.0 105.0 L 80.0 112.0 L 72.0 111.0 L 65.0 102.0 L 66.0 94.0 Z"/>
<path fill="#2926A5" fill-rule="evenodd" d="M 48.0 134.0 L 44.0 140.0 L 45.0 147.0 L 51.0 151.0 L 59.0 150.0 L 63.0 144.0 L 61.0 136.0 L 57.0 133.0 Z M 52.0 136.0 L 56.0 138.0 L 51.0 140.0 L 52.0 144.0 L 56.0 143.0 L 56.0 138.0 L 59.0 140.0 L 59.0 143.0 L 56.0 147.0 L 51.0 147.0 L 48.0 144.0 L 48.0 140.0 Z M 48.0 123.0 L 42.0 126.0 L 35.0 135.0 L 34.0 144.0 L 36.0 151.0 L 42.0 158.0 L 46.0 160.0 L 61.0 160.0 L 71.0 151.0 L 71.0 133.0 L 62.0 124.0 Z M 53.0 129.0 L 60.0 131.0 L 66.0 139.0 L 65.0 147.0 L 61.0 152.0 L 57.0 154.0 L 48.0 153.0 L 43.0 149.0 L 41.0 145.0 L 42.0 136.0 L 47.0 131.0 Z M 100.0 55.0 L 99.0 59.0 L 103.0 60.0 L 104.0 56.0 Z M 104.0 48.0 L 97.0 49.0 L 92.0 55.0 L 93.0 62.0 L 97.0 66.0 L 105.0 66.0 L 110.0 61.0 L 110.0 53.0 Z M 99.0 52.0 L 104.0 52.0 L 107.0 56.0 L 107.0 59.0 L 103.0 63.0 L 100.0 63.0 L 96.0 60.0 L 96.0 55.0 Z M 108.0 39.0 L 101.0 38.0 L 93.0 40.0 L 84.0 48.0 L 82.0 55.0 L 84.0 66.0 L 91.0 74.0 L 95.0 76.0 L 110.0 75.0 L 117.0 69.0 L 120.0 64.0 L 120.0 51.0 L 118.0 47.0 Z M 98.0 45.0 L 105.0 45.0 L 114.0 54.0 L 113.0 63.0 L 108.0 68.0 L 103.0 70.0 L 94.0 68.0 L 89.0 61.0 L 90.0 52.0 Z"/>
</svg>
