<svg xmlns="http://www.w3.org/2000/svg" viewBox="0 0 156 204" width="156" height="204" shape-rendering="geometricPrecision"><title>mahjong tile 07</title>
<path fill="#221815" fill-rule="evenodd" d="M 5.0 4.0 L 1.0 10.0 L 2.0 196.0 L 7.0 201.0 L 148.0 201.0 L 152.0 197.0 L 154.0 192.0 L 154.0 11.0 L 152.0 7.0 L 145.0 2.0 L 10.0 2.0 Z M 7.0 6.0 L 11.0 4.0 L 144.0 4.0 L 150.0 8.0 L 151.0 194.0 L 146.0 199.0 L 9.0 199.0 L 5.0 196.0 L 4.0 10.0 Z"/>
<path fill="#21983A" fill-rule="evenodd" d="M 74.0 55.0 L 68.0 61.0 L 68.0 68.0 L 73.0 73.0 L 81.0 73.0 L 86.0 68.0 L 86.0 61.0 L 82.0 56.0 Z M 75.0 59.0 L 79.0 59.0 L 83.0 63.0 L 82.0 67.0 L 78.0 70.0 L 75.0 70.0 L 72.0 67.0 L 73.0 65.0 L 76.0 67.0 L 80.0 65.0 L 78.0 62.0 L 73.0 62.0 Z M 25.0 44.0 L 24.0 50.0 L 26.0 58.0 L 33.0 66.0 L 37.0 68.0 L 51.0 68.0 L 57.0 64.0 L 60.0 73.0 L 69.0 82.0 L 82.0 83.0 L 91.0 78.0 L 96.0 88.0 L 106.0 95.0 L 116.0 95.0 L 122.0 92.0 L 129.0 83.0 L 129.0 69.0 L 126.0 64.0 L 120.0 59.0 L 109.0 57.0 L 97.0 62.0 L 93.0 53.0 L 86.0 47.0 L 75.0 45.0 L 63.0 49.0 L 59.0 38.0 L 49.0 31.0 L 38.0 31.0 L 30.0 36.0 Z M 109.0 71.0 L 113.0 71.0 L 117.0 75.0 L 114.0 81.0 L 111.0 80.0 L 114.0 77.0 L 113.0 74.0 L 108.0 75.0 L 111.0 80.0 L 110.0 81.0 L 106.0 79.0 L 105.0 75.0 Z M 108.0 64.0 L 117.0 65.0 L 123.0 72.0 L 123.0 74.0 L 121.0 75.0 L 120.0 72.0 L 114.0 67.0 L 108.0 67.0 L 102.0 72.0 L 102.0 80.0 L 107.0 85.0 L 117.0 84.0 L 120.0 78.0 L 123.0 78.0 L 122.0 82.0 L 115.0 88.0 L 107.0 88.0 L 99.0 80.0 L 100.0 70.0 Z M 73.0 52.0 L 83.0 53.0 L 89.0 60.0 L 89.0 68.0 L 81.0 76.0 L 73.0 76.0 L 66.0 70.0 L 66.0 58.0 Z M 40.0 46.0 L 42.0 47.0 L 41.0 51.0 L 45.0 52.0 L 46.0 49.0 L 43.0 46.0 L 46.0 45.0 L 49.0 48.0 L 49.0 52.0 L 46.0 55.0 L 40.0 54.0 L 38.0 52.0 L 38.0 48.0 Z M 40.0 38.0 L 50.0 39.0 L 56.0 46.0 L 55.0 55.0 L 47.0 62.0 L 40.0 62.0 L 32.0 54.0 L 33.0 50.0 L 35.0 54.0 L 41.0 59.0 L 46.0 59.0 L 52.0 55.0 L 53.0 47.0 L 47.0 41.0 L 38.0 42.0 L 35.0 45.0 L 35.0 48.0 L 33.0 50.0 L 32.0 49.0 L 33.0 43.0 Z"/>
<path fill="#D11228" fill-rule="evenodd" d="M 57.0 151.0 L 55.0 155.0 L 59.0 156.0 L 60.0 153.0 Z M 54.0 145.0 L 49.0 150.0 L 49.0 158.0 L 52.0 162.0 L 63.0 162.0 L 66.0 159.0 L 67.0 155.0 L 66.0 149.0 L 61.0 145.0 Z M 57.0 148.0 L 63.0 152.0 L 63.0 156.0 L 60.0 159.0 L 55.0 159.0 L 52.0 156.0 L 52.0 152.0 Z M 57.0 109.0 L 51.0 112.0 L 48.0 120.0 L 54.0 128.0 L 61.0 128.0 L 66.0 124.0 L 67.0 118.0 L 66.0 114.0 L 63.0 111.0 Z M 56.0 113.0 L 59.0 113.0 L 63.0 117.0 L 63.0 121.0 L 61.0 123.0 L 59.0 122.0 L 59.0 116.0 L 55.0 118.0 L 55.0 120.0 L 60.0 123.0 L 58.0 125.0 L 55.0 124.0 L 52.0 120.0 L 53.0 116.0 Z M 41.0 109.0 L 39.0 115.0 L 39.0 123.0 L 41.0 129.0 L 48.0 137.0 L 40.0 146.0 L 39.0 158.0 L 41.0 164.0 L 47.0 170.0 L 54.0 173.0 L 65.0 172.0 L 72.0 167.0 L 76.0 160.0 L 84.0 169.0 L 92.0 173.0 L 103.0 172.0 L 111.0 166.0 L 115.0 158.0 L 115.0 150.0 L 111.0 142.0 L 105.0 136.0 L 114.0 126.0 L 115.0 115.0 L 113.0 110.0 L 107.0 103.0 L 100.0 100.0 L 92.0 100.0 L 85.0 103.0 L 77.0 113.0 L 69.0 103.0 L 61.0 100.0 L 54.0 100.0 L 47.0 103.0 Z M 95.0 148.0 L 100.0 151.0 L 99.0 153.0 L 96.0 151.0 L 93.0 153.0 L 94.0 156.0 L 101.0 156.0 L 98.0 159.0 L 95.0 159.0 L 90.0 155.0 L 91.0 151.0 Z M 95.0 141.0 L 102.0 143.0 L 107.0 149.0 L 105.0 150.0 L 99.0 145.0 L 92.0 145.0 L 88.0 148.0 L 86.0 155.0 L 91.0 162.0 L 98.0 163.0 L 104.0 159.0 L 105.0 152.0 L 107.0 151.0 L 107.0 159.0 L 100.0 166.0 L 90.0 165.0 L 83.0 156.0 L 83.0 151.0 L 90.0 143.0 Z M 57.0 141.0 L 65.0 144.0 L 70.0 152.0 L 68.0 161.0 L 61.0 166.0 L 52.0 165.0 L 45.0 156.0 L 47.0 148.0 L 52.0 143.0 Z M 76.0 125.0 L 86.0 136.0 L 77.0 148.0 L 67.0 137.0 Z M 95.0 113.0 L 100.0 116.0 L 99.0 118.0 L 97.0 116.0 L 93.0 118.0 L 95.0 122.0 L 99.0 120.0 L 100.0 121.0 L 97.0 125.0 L 94.0 125.0 L 90.0 120.0 L 91.0 116.0 Z M 91.0 107.0 L 94.0 107.0 L 95.0 109.0 L 87.0 115.0 L 86.0 120.0 L 92.0 128.0 L 99.0 128.0 L 105.0 122.0 L 104.0 114.0 L 97.0 108.0 L 100.0 107.0 L 107.0 113.0 L 107.0 124.0 L 103.0 129.0 L 99.0 131.0 L 90.0 130.0 L 83.0 121.0 L 85.0 113.0 Z M 53.0 107.0 L 62.0 107.0 L 69.0 114.0 L 69.0 124.0 L 62.0 131.0 L 54.0 131.0 L 46.0 124.0 L 46.0 114.0 Z"/>
</svg>
