<svg xmlns="http://www.w3.org/2000/svg" viewBox="0 0 157 204" width="157" height="204" shape-rendering="geometricPrecision"><title>mahjong tile 09</title>
<path fill="#221815" fill-rule="evenodd" d="M 7.0 3.0 L 2.0 10.0 L 2.0 194.0 L 5.0 199.0 L 8.0 201.0 L 150.0 200.0 L 154.0 194.0 L 153.0 7.0 L 146.0 2.0 Z M 9.0 5.0 L 145.0 4.0 L 151.0 9.0 L 152.0 193.0 L 148.0 198.0 L 10.0 199.0 L 5.0 195.0 L 4.0 11.0 Z"/>
<path fill="#21983A" fill-rule="evenodd" d="M 44.0 151.0 L 43.0 155.0 L 46.0 156.0 L 48.0 152.0 Z M 108.0 144.0 L 102.0 150.0 L 102.0 157.0 L 107.0 162.0 L 115.0 162.0 L 120.0 157.0 L 120.0 150.0 L 114.0 144.0 Z M 109.0 148.0 L 113.0 148.0 L 115.0 150.0 L 114.0 152.0 L 110.0 151.0 L 108.0 153.0 L 110.0 156.0 L 112.0 156.0 L 114.0 153.0 L 116.0 154.0 L 116.0 156.0 L 112.0 159.0 L 107.0 157.0 L 105.0 152.0 Z M 73.0 145.0 L 69.0 150.0 L 70.0 158.0 L 74.0 162.0 L 83.0 162.0 L 87.0 156.0 L 86.0 148.0 L 81.0 144.0 Z M 76.0 148.0 L 80.0 148.0 L 82.0 150.0 L 81.0 152.0 L 76.0 152.0 L 77.0 156.0 L 82.0 153.0 L 83.0 156.0 L 79.0 159.0 L 77.0 159.0 L 73.0 155.0 L 73.0 151.0 Z M 40.0 145.0 L 36.0 152.0 L 38.0 160.0 L 41.0 162.0 L 50.0 162.0 L 54.0 157.0 L 53.0 148.0 L 48.0 144.0 Z M 43.0 148.0 L 47.0 148.0 L 51.0 152.0 L 50.0 156.0 L 46.0 159.0 L 40.0 155.0 L 40.0 151.0 Z M 27.0 147.0 L 28.0 162.0 L 34.0 169.0 L 40.0 172.0 L 51.0 172.0 L 62.0 164.0 L 67.0 169.0 L 73.0 172.0 L 84.0 172.0 L 94.0 164.0 L 103.0 171.0 L 116.0 172.0 L 126.0 165.0 L 130.0 157.0 L 130.0 149.0 L 125.0 140.0 L 119.0 136.0 L 112.0 134.0 L 100.0 137.0 L 95.0 142.0 L 89.0 137.0 L 79.0 134.0 L 70.0 136.0 L 63.0 142.0 L 61.0 142.0 L 54.0 136.0 L 44.0 134.0 L 35.0 137.0 Z M 108.0 141.0 L 116.0 142.0 L 123.0 150.0 L 122.0 159.0 L 115.0 165.0 L 104.0 164.0 L 98.0 155.0 L 100.0 147.0 Z M 71.0 143.0 L 75.0 141.0 L 82.0 141.0 L 89.0 147.0 L 90.0 157.0 L 85.0 164.0 L 74.0 165.0 L 66.0 157.0 L 66.0 150.0 Z M 42.0 141.0 L 49.0 141.0 L 57.0 149.0 L 57.0 158.0 L 52.0 164.0 L 41.0 165.0 L 34.0 159.0 L 34.0 148.0 Z"/>
<path fill="#D11228" fill-rule="evenodd" d="M 44.0 98.0 L 43.0 102.0 L 46.0 103.0 L 48.0 100.0 Z M 106.0 92.0 L 101.0 100.0 L 103.0 106.0 L 108.0 110.0 L 117.0 108.0 L 120.0 104.0 L 119.0 95.0 L 115.0 92.0 Z M 109.0 95.0 L 113.0 95.0 L 116.0 98.0 L 115.0 100.0 L 112.0 98.0 L 108.0 100.0 L 110.0 103.0 L 114.0 101.0 L 116.0 102.0 L 113.0 106.0 L 109.0 106.0 L 105.0 102.0 L 106.0 98.0 Z M 74.0 92.0 L 69.0 98.0 L 70.0 106.0 L 76.0 110.0 L 81.0 110.0 L 87.0 104.0 L 87.0 97.0 L 83.0 92.0 Z M 77.0 95.0 L 80.0 95.0 L 82.0 97.0 L 81.0 99.0 L 76.0 99.0 L 77.0 103.0 L 81.0 101.0 L 83.0 102.0 L 80.0 106.0 L 76.0 106.0 L 73.0 103.0 L 73.0 99.0 Z M 41.0 92.0 L 36.0 98.0 L 37.0 105.0 L 43.0 110.0 L 48.0 110.0 L 54.0 104.0 L 54.0 97.0 L 50.0 92.0 Z M 44.0 95.0 L 47.0 95.0 L 51.0 100.0 L 47.0 106.0 L 43.0 106.0 L 40.0 102.0 L 40.0 99.0 Z M 27.0 94.0 L 28.0 110.0 L 35.0 117.0 L 40.0 119.0 L 54.0 118.0 L 62.0 111.0 L 68.0 117.0 L 73.0 119.0 L 87.0 118.0 L 93.0 112.0 L 96.0 112.0 L 99.0 116.0 L 105.0 119.0 L 116.0 119.0 L 121.0 117.0 L 128.0 110.0 L 130.0 105.0 L 130.0 97.0 L 127.0 90.0 L 119.0 83.0 L 112.0 81.0 L 105.0 82.0 L 94.0 90.0 L 88.0 84.0 L 79.0 81.0 L 68.0 84.0 L 62.0 90.0 L 55.0 84.0 L 44.0 81.0 L 34.0 85.0 Z M 110.0 88.0 L 117.0 90.0 L 123.0 98.0 L 121.0 108.0 L 114.0 113.0 L 108.0 113.0 L 104.0 111.0 L 98.0 102.0 L 99.0 96.0 L 102.0 92.0 Z M 77.0 88.0 L 85.0 90.0 L 90.0 96.0 L 90.0 104.0 L 88.0 108.0 L 81.0 113.0 L 73.0 112.0 L 66.0 104.0 L 66.0 97.0 L 72.0 90.0 Z M 45.0 88.0 L 52.0 90.0 L 58.0 99.0 L 56.0 107.0 L 49.0 113.0 L 40.0 112.0 L 33.0 103.0 L 33.0 97.0 L 39.0 90.0 Z"/>
<path fill="#2926A5" fill-rule="evenodd" d="M 77.0 48.0 L 76.0 52.0 L 79.0 53.0 L 81.0 49.0 Z M 44.0 48.0 L 43.0 52.0 L 46.0 53.0 L 48.0 50.0 Z M 110.0 41.0 L 103.0 45.0 L 102.0 54.0 L 105.0 58.0 L 112.0 60.0 L 119.0 56.0 L 120.0 48.0 L 117.0 43.0 Z M 109.0 45.0 L 113.0 45.0 L 116.0 48.0 L 115.0 50.0 L 112.0 48.0 L 108.0 49.0 L 110.0 53.0 L 114.0 51.0 L 116.0 52.0 L 112.0 56.0 L 109.0 56.0 L 105.0 52.0 L 106.0 48.0 Z M 77.0 41.0 L 72.0 43.0 L 69.0 48.0 L 69.0 53.0 L 74.0 59.0 L 79.0 60.0 L 86.0 56.0 L 87.0 47.0 L 84.0 43.0 Z M 76.0 45.0 L 81.0 45.0 L 84.0 50.0 L 83.0 53.0 L 79.0 56.0 L 76.0 56.0 L 73.0 53.0 L 73.0 48.0 Z M 44.0 41.0 L 38.0 44.0 L 36.0 53.0 L 41.0 59.0 L 46.0 60.0 L 53.0 56.0 L 54.0 47.0 L 50.0 42.0 Z M 43.0 45.0 L 48.0 45.0 L 50.0 47.0 L 51.0 52.0 L 47.0 56.0 L 44.0 56.0 L 40.0 53.0 L 40.0 49.0 Z M 27.0 44.0 L 27.0 57.0 L 29.0 61.0 L 34.0 66.0 L 41.0 69.0 L 53.0 68.0 L 61.0 61.0 L 68.0 67.0 L 74.0 69.0 L 86.0 68.0 L 90.0 66.0 L 94.0 61.0 L 101.0 67.0 L 107.0 69.0 L 115.0 69.0 L 121.0 67.0 L 127.0 61.0 L 130.0 54.0 L 129.0 44.0 L 125.0 37.0 L 117.0 32.0 L 112.0 31.0 L 105.0 32.0 L 95.0 39.0 L 84.0 32.0 L 77.0 31.0 L 68.0 34.0 L 62.0 40.0 L 57.0 35.0 L 48.0 31.0 L 44.0 31.0 L 34.0 35.0 Z M 109.0 38.0 L 118.0 40.0 L 123.0 48.0 L 122.0 56.0 L 113.0 63.0 L 109.0 63.0 L 103.0 60.0 L 98.0 52.0 L 101.0 43.0 Z M 76.0 38.0 L 85.0 40.0 L 90.0 46.0 L 90.0 55.0 L 85.0 61.0 L 81.0 63.0 L 76.0 63.0 L 70.0 60.0 L 66.0 54.0 L 67.0 45.0 L 71.0 40.0 Z M 43.0 38.0 L 51.0 39.0 L 56.0 44.0 L 58.0 50.0 L 55.0 58.0 L 48.0 63.0 L 40.0 62.0 L 33.0 53.0 L 34.0 45.0 L 38.0 40.0 Z"/>
</svg>
