<svg xmlns="http://www.w3.org/2000/svg" viewBox="0 0 154 204" width="154" height="204" shape-rendering="geometricPrecision"><title>mahjong tile 24</title>
<path fill="#221815" fill-rule="evenodd" d="M 7.0 3.0 L 2.0 11.0 L 3.0 196.0 L 11.0 202.0 L 145.0 202.0 L 150.0 200.0 L 153.0 197.0 L 153.0 7.0 L 146.0 2.0 Z M 9.0 5.0 L 146.0 4.0 L 151.0 8.0 L 153.0 13.0 L 153.0 190.0 L 148.0 198.0 L 10.0 199.0 L 6.0 196.0 L 4.0 192.0 L 4.0 12.0 Z"/>
<path fill="#21983A" fill-rule="evenodd" d="M 111.0 152.0 L 106.0 157.0 L 105.0 161.0 L 109.0 161.0 L 111.0 159.0 Z M 46.0 152.0 L 45.0 158.0 L 48.0 161.0 L 52.0 161.0 L 52.0 159.0 Z M 105.0 42.0 L 104.0 43.0 L 112.0 51.0 L 111.0 44.0 L 109.0 42.0 Z M 52.0 42.0 L 48.0 42.0 L 45.0 45.0 L 45.0 51.0 L 51.0 46.0 Z"/>
<path fill="#2F6EB6" fill-rule="evenodd" d="M 44.0 38.0 L 41.0 42.0 L 42.0 164.0 L 45.0 166.0 L 112.0 166.0 L 116.0 161.0 L 116.0 43.0 L 114.0 39.0 L 111.0 37.0 Z M 112.0 151.0 L 112.0 160.0 L 110.0 162.0 L 105.0 162.0 L 103.0 160.0 Z M 44.0 152.0 L 46.0 151.0 L 54.0 160.0 L 52.0 162.0 L 47.0 162.0 L 44.0 159.0 Z M 59.0 42.0 L 97.0 42.0 L 110.0 56.0 L 110.0 147.0 L 98.0 161.0 L 59.0 161.0 L 46.0 146.0 L 46.0 57.0 Z M 103.0 42.0 L 109.0 41.0 L 113.0 45.0 L 113.0 51.0 L 110.0 52.0 L 105.0 47.0 Z M 52.0 41.0 L 54.0 43.0 L 48.0 51.0 L 45.0 52.0 L 44.0 44.0 L 48.0 41.0 Z M 33.0 31.0 L 31.0 34.0 L 32.0 171.0 L 35.0 174.0 L 123.0 173.0 L 125.0 169.0 L 124.0 32.0 L 120.0 29.0 L 37.0 29.0 Z M 42.0 34.0 L 114.0 34.0 L 119.0 38.0 L 120.0 164.0 L 114.0 170.0 L 42.0 170.0 L 38.0 166.0 L 37.0 40.0 Z"/>

<rect x="151" y="13" width="2" height="177" fill="#221815"/>
</svg>
