<svg xmlns="http://www.w3.org/2000/svg" viewBox="0 0 157 204" width="157" height="204" shape-rendering="geometricPrecision"><title>mahjong tile 20</title>
<path fill="#221815" fill-rule="evenodd" d="M 7.0 3.0 L 2.0 10.0 L 2.0 194.0 L 4.0 198.0 L 11.0 202.0 L 145.0 202.0 L 150.0 200.0 L 154.0 194.0 L 153.0 7.0 L 146.0 2.0 Z M 9.0 5.0 L 146.0 4.0 L 152.0 10.0 L 152.0 193.0 L 148.0 198.0 L 10.0 199.0 L 6.0 196.0 L 4.0 192.0 L 4.0 11.0 Z"/>
<path fill="#2926A5" fill-rule="evenodd" d="M 56.0 42.0 L 55.0 45.0 L 58.0 48.0 L 59.0 55.0 L 55.0 58.0 L 44.0 60.0 L 42.0 62.0 L 49.0 69.0 L 45.0 73.0 L 37.0 77.0 L 34.0 86.0 L 34.0 94.0 L 38.0 106.0 L 43.0 112.0 L 51.0 116.0 L 47.0 123.0 L 36.0 134.0 L 34.0 142.0 L 36.0 143.0 L 44.0 135.0 L 59.0 156.0 L 62.0 157.0 L 67.0 150.0 L 69.0 122.0 L 78.0 126.0 L 95.0 140.0 L 104.0 142.0 L 121.0 140.0 L 123.0 138.0 L 121.0 135.0 L 93.0 126.0 L 68.0 113.0 L 68.0 109.0 L 70.0 107.0 L 81.0 110.0 L 89.0 104.0 L 102.0 84.0 L 102.0 78.0 L 94.0 70.0 L 78.0 69.0 L 71.0 71.0 L 69.0 69.0 L 70.0 67.0 L 82.0 61.0 L 85.0 56.0 L 80.0 52.0 L 74.0 52.0 L 73.0 49.0 L 64.0 42.0 Z M 56.0 122.0 L 59.0 126.0 L 59.0 140.0 L 57.0 142.0 L 48.0 134.0 L 49.0 130.0 Z M 57.0 84.0 L 57.0 87.0 L 47.0 93.0 L 48.0 96.0 L 52.0 96.0 L 57.0 99.0 L 52.0 104.0 L 47.0 106.0 L 43.0 101.0 L 40.0 88.0 L 44.0 85.0 Z M 84.0 75.0 L 86.0 77.0 L 86.0 84.0 L 80.0 97.0 L 76.0 101.0 L 71.0 100.0 L 70.0 97.0 L 79.0 89.0 L 79.0 87.0 L 75.0 84.0 L 71.0 84.0 L 69.0 80.0 L 74.0 76.0 Z M 59.0 72.0 L 57.0 76.0 L 42.0 82.0 L 40.0 80.0 L 44.0 76.0 L 57.0 70.0 Z"/>
</svg>
