<svg xmlns="http://www.w3.org/2000/svg" viewBox="0 0 157 204" width="157" height="204" shape-rendering="geometricPrecision"><title>mahjong tile 19</title>
<path fill="#221815" fill-rule="evenodd" d="M 5.0 4.0 L 2.0 8.0 L 3.0 196.0 L 9.0 201.0 L 149.0 200.0 L 154.0 194.0 L 153.0 7.0 L 147.0 2.0 L 9.0 2.0 Z M 8.0 5.0 L 12.0 3.0 L 144.0 3.0 L 152.0 10.0 L 152.0 192.0 L 147.0 198.0 L 11.0 199.0 L 6.0 196.0 L 4.0 192.0 L 4.0 11.0 Z"/>
<path fill="#21983A" fill-rule="evenodd" d="M 42.0 47.0 L 41.0 49.0 L 47.0 54.0 L 51.0 55.0 L 53.0 58.0 L 47.0 64.0 L 34.0 65.0 L 37.0 73.0 L 43.0 75.0 L 45.0 78.0 L 35.0 96.0 L 27.0 105.0 L 22.0 107.0 L 22.0 109.0 L 25.0 111.0 L 31.0 109.0 L 40.0 101.0 L 50.0 86.0 L 55.0 87.0 L 55.0 90.0 L 45.0 98.0 L 41.0 104.0 L 42.0 107.0 L 49.0 105.0 L 52.0 107.0 L 40.0 117.0 L 39.0 124.0 L 45.0 125.0 L 55.0 119.0 L 57.0 121.0 L 55.0 128.0 L 50.0 135.0 L 48.0 135.0 L 43.0 128.0 L 41.0 136.0 L 43.0 142.0 L 47.0 146.0 L 53.0 146.0 L 59.0 139.0 L 63.0 128.0 L 70.0 121.0 L 74.0 121.0 L 81.0 124.0 L 83.0 127.0 L 74.0 135.0 L 64.0 134.0 L 64.0 137.0 L 66.0 139.0 L 77.0 140.0 L 92.0 133.0 L 121.0 151.0 L 123.0 149.0 L 123.0 141.0 L 119.0 137.0 L 99.0 127.0 L 96.0 124.0 L 100.0 115.0 L 100.0 108.0 L 95.0 103.0 L 99.0 99.0 L 107.0 95.0 L 106.0 91.0 L 103.0 88.0 L 98.0 88.0 L 96.0 85.0 L 100.0 76.0 L 102.0 76.0 L 110.0 83.0 L 119.0 86.0 L 137.0 86.0 L 141.0 83.0 L 130.0 76.0 L 118.0 74.0 L 108.0 70.0 L 96.0 61.0 L 99.0 58.0 L 111.0 53.0 L 111.0 49.0 L 105.0 43.0 L 102.0 42.0 L 97.0 51.0 L 91.0 56.0 L 84.0 53.0 L 83.0 51.0 L 85.0 49.0 L 89.0 49.0 L 95.0 46.0 L 93.0 38.0 L 89.0 35.0 L 82.0 35.0 L 81.0 36.0 L 83.0 39.0 L 72.0 49.0 L 67.0 49.0 L 61.0 42.0 L 55.0 42.0 L 48.0 46.0 Z M 90.0 111.0 L 86.0 120.0 L 80.0 119.0 L 78.0 117.0 L 85.0 111.0 Z M 86.0 81.0 L 87.0 94.0 L 89.0 97.0 L 84.0 103.0 L 76.0 108.0 L 75.0 107.0 L 81.0 94.0 L 82.0 83.0 Z M 70.0 54.0 L 82.0 61.0 L 76.0 67.0 L 87.0 64.0 L 93.0 69.0 L 89.0 70.0 L 79.0 77.0 L 74.0 77.0 L 75.0 84.0 L 70.0 96.0 L 71.0 104.0 L 74.0 107.0 L 74.0 109.0 L 70.0 113.0 L 73.0 116.0 L 67.0 120.0 L 64.0 115.0 L 57.0 110.0 L 66.0 102.0 L 66.0 97.0 L 62.0 93.0 L 72.0 84.0 L 72.0 82.0 L 67.0 76.0 L 60.0 76.0 L 55.0 80.0 L 52.0 78.0 L 62.0 57.0 L 65.0 54.0 Z"/>
</svg>
