<svg xmlns="http://www.w3.org/2000/svg" viewBox="0 0 157 204" width="157" height="204" shape-rendering="geometricPrecision"><title>mahjong tile 23</title>
<path fill="#221815" fill-rule="evenodd" d="M 7.0 3.0 L 2.0 10.0 L 2.0 194.0 L 4.0 198.0 L 11.0 202.0 L 145.0 202.0 L 150.0 200.0 L 154.0 194.0 L 153.0 7.0 L 146.0 2.0 Z M 10.0 4.0 L 146.0 4.0 L 151.0 9.0 L 152.0 193.0 L 148.0 198.0 L 10.0 199.0 L 4.0 193.0 L 4.0 11.0 Z"/>
<path fill="#2926A5" fill-rule="evenodd" d="M 93.0 54.0 L 87.0 53.0 L 80.0 48.0 L 76.0 48.0 L 76.0 53.0 L 82.0 69.0 L 81.0 89.0 L 61.0 108.0 L 59.0 104.0 L 63.0 89.0 L 62.0 79.0 L 59.0 74.0 L 52.0 68.0 L 42.0 67.0 L 47.0 84.0 L 47.0 88.0 L 43.0 92.0 L 21.0 94.0 L 25.0 105.0 L 32.0 111.0 L 24.0 133.0 L 24.0 139.0 L 28.0 147.0 L 35.0 148.0 L 41.0 143.0 L 46.0 135.0 L 52.0 141.0 L 57.0 131.0 L 58.0 116.0 L 66.0 107.0 L 77.0 99.0 L 79.0 100.0 L 77.0 123.0 L 84.0 136.0 L 96.0 140.0 L 117.0 140.0 L 124.0 137.0 L 125.0 128.0 L 117.0 121.0 L 109.0 120.0 L 96.0 125.0 L 92.0 123.0 L 88.0 118.0 L 89.0 106.0 L 92.0 101.0 L 95.0 102.0 L 117.0 90.0 L 117.0 83.0 L 111.0 77.0 L 103.0 81.0 L 99.0 81.0 L 95.0 84.0 L 93.0 82.0 L 95.0 74.0 L 95.0 64.0 L 97.0 61.0 Z M 44.0 107.0 L 47.0 110.0 L 46.0 120.0 L 40.0 126.0 L 29.0 131.0 L 28.0 126.0 L 30.0 121.0 Z"/>
</svg>
