<svg xmlns="http://www.w3.org/2000/svg" viewBox="0 0 157 204" width="157" height="204" shape-rendering="geometricPrecision"><title>mahjong tile 21</title>
<path fill="#221815" fill-rule="evenodd" d="M 5.0 4.0 L 2.0 9.0 L 3.0 197.0 L 11.0 202.0 L 148.0 201.0 L 152.0 197.0 L 154.0 192.0 L 154.0 11.0 L 152.0 6.0 L 146.0 2.0 L 10.0 2.0 Z M 8.0 5.0 L 145.0 4.0 L 151.0 9.0 L 152.0 192.0 L 146.0 199.0 L 9.0 199.0 L 5.0 195.0 L 4.0 10.0 Z"/>
<path fill="#2926A5" fill-rule="evenodd" d="M 58.0 37.0 L 54.0 42.0 L 59.0 45.0 L 60.0 49.0 L 59.0 66.0 L 53.0 71.0 L 36.0 75.0 L 45.0 85.0 L 53.0 85.0 L 57.0 88.0 L 55.0 93.0 L 36.0 110.0 L 33.0 109.0 L 36.0 107.0 L 36.0 105.0 L 28.0 104.0 L 26.0 106.0 L 26.0 113.0 L 29.0 122.0 L 27.0 134.0 L 31.0 144.0 L 36.0 148.0 L 38.0 146.0 L 36.0 133.0 L 37.0 118.0 L 41.0 113.0 L 50.0 109.0 L 53.0 113.0 L 53.0 116.0 L 50.0 120.0 L 50.0 126.0 L 52.0 127.0 L 60.0 124.0 L 62.0 126.0 L 60.0 129.0 L 52.0 132.0 L 51.0 138.0 L 54.0 143.0 L 62.0 143.0 L 65.0 156.0 L 69.0 157.0 L 71.0 155.0 L 71.0 149.0 L 74.0 141.0 L 76.0 140.0 L 78.0 145.0 L 84.0 148.0 L 96.0 161.0 L 102.0 157.0 L 110.0 147.0 L 113.0 136.0 L 115.0 116.0 L 120.0 102.0 L 114.0 95.0 L 109.0 92.0 L 100.0 90.0 L 87.0 90.0 L 85.0 88.0 L 85.0 85.0 L 81.0 81.0 L 72.0 80.0 L 72.0 77.0 L 75.0 74.0 L 93.0 67.0 L 93.0 65.0 L 88.0 61.0 L 76.0 59.0 L 74.0 57.0 L 74.0 45.0 L 68.0 40.0 L 62.0 37.0 Z M 69.0 101.0 L 70.0 105.0 L 67.0 108.0 L 63.0 109.0 L 61.0 105.0 Z M 85.0 96.0 L 100.0 96.0 L 105.0 101.0 L 103.0 128.0 L 96.0 145.0 L 90.0 145.0 L 74.0 138.0 L 76.0 135.0 L 80.0 135.0 L 82.0 133.0 L 85.0 134.0 L 87.0 132.0 L 84.0 124.0 L 79.0 120.0 L 85.0 114.0 L 85.0 108.0 L 79.0 103.0 Z M 74.0 86.0 L 76.0 90.0 L 72.0 93.0 L 69.0 93.0 L 68.0 89.0 Z"/>
</svg>
