<svg xmlns="http://www.w3.org/2000/svg" viewBox="0 0 156 205" width="156" height="205" shape-rendering="geometricPrecision"><title>mahjong tile 18</title>
<path fill="#221815" fill-rule="evenodd" d="M 7.0 3.0 L 2.0 8.0 L 1.0 12.0 L 1.0 193.0 L 3.0 198.0 L 9.0 202.0 L 148.0 201.0 L 154.0 193.0 L 154.0 11.0 L 152.0 7.0 L 145.0 2.0 Z M 8.0 5.0 L 146.0 5.0 L 151.0 10.0 L 152.0 191.0 L 151.0 195.0 L 145.0 200.0 L 10.0 200.0 L 5.0 196.0 L 4.0 10.0 Z"/>
<path fill="#21983A" fill-rule="evenodd" d="M 24.0 91.0 L 24.0 110.0 L 30.0 116.0 L 44.0 120.0 L 39.0 133.0 L 37.0 145.0 L 43.0 164.0 L 47.0 170.0 L 51.0 172.0 L 52.0 169.0 L 49.0 166.0 L 44.0 154.0 L 44.0 143.0 L 47.0 138.0 L 56.0 132.0 L 59.0 123.0 L 62.0 122.0 L 75.0 131.0 L 85.0 131.0 L 97.0 126.0 L 95.0 124.0 L 76.0 125.0 L 63.0 113.0 L 51.0 111.0 L 46.0 108.0 L 43.0 112.0 L 36.0 112.0 L 28.0 105.0 L 26.0 92.0 Z M 53.0 119.0 L 54.0 123.0 L 52.0 127.0 L 47.0 131.0 L 46.0 128.0 L 49.0 122.0 Z M 122.0 29.0 L 114.0 30.0 L 110.0 37.0 L 109.0 43.0 L 101.0 50.0 L 92.0 54.0 L 87.0 60.0 L 91.0 61.0 L 98.0 55.0 L 100.0 55.0 L 103.0 60.0 L 97.0 68.0 L 100.0 69.0 L 104.0 67.0 L 107.0 62.0 L 107.0 53.0 L 115.0 45.0 L 117.0 37.0 L 123.0 31.0 Z"/>
<path fill="#D11228" fill-rule="evenodd" d="M 106.0 118.0 L 99.0 126.0 L 111.0 141.0 L 123.0 163.0 L 126.0 174.0 L 129.0 175.0 L 130.0 171.0 L 128.0 161.0 L 122.0 144.0 L 109.0 119.0 Z M 35.0 40.0 L 45.0 52.0 L 49.0 50.0 L 55.0 52.0 L 60.0 51.0 L 64.0 46.0 L 60.0 43.0 L 62.0 40.0 L 76.0 40.0 L 86.0 33.0 L 69.0 34.0 L 58.0 29.0 L 53.0 29.0 L 49.0 35.0 L 53.0 42.0 L 51.0 44.0 L 36.0 38.0 Z"/>
<path fill="#2926A5" fill-rule="evenodd" d="M 49.0 51.0 L 47.0 53.0 L 49.0 60.0 L 46.0 67.0 L 43.0 84.0 L 44.0 93.0 L 47.0 100.0 L 45.0 106.0 L 48.0 108.0 L 52.0 104.0 L 55.0 111.0 L 59.0 110.0 L 61.0 112.0 L 64.0 108.0 L 74.0 105.0 L 87.0 114.0 L 97.0 124.0 L 99.0 124.0 L 107.0 116.0 L 92.0 88.0 L 122.0 83.0 L 131.0 79.0 L 133.0 75.0 L 119.0 79.0 L 111.0 79.0 L 98.0 70.0 L 92.0 63.0 L 87.0 61.0 L 79.0 62.0 L 76.0 53.0 L 71.0 47.0 L 67.0 45.0 L 62.0 49.0 L 74.0 61.0 L 76.0 73.0 L 71.0 73.0 L 66.0 76.0 L 63.0 76.0 L 61.0 74.0 L 57.0 75.0 L 51.0 71.0 L 52.0 65.0 L 54.0 64.0 L 58.0 68.0 L 65.0 67.0 L 67.0 65.0 L 67.0 57.0 L 63.0 54.0 L 56.0 56.0 L 52.0 51.0 Z M 93.0 112.0 L 97.0 110.0 L 101.0 114.0 L 101.0 116.0 L 99.0 117.0 Z M 86.0 95.0 L 88.0 94.0 L 89.0 96.0 L 88.0 97.0 Z M 50.0 91.0 L 54.0 89.0 L 57.0 98.0 L 64.0 97.0 L 66.0 99.0 L 69.0 95.0 L 72.0 96.0 L 73.0 91.0 L 77.0 96.0 L 71.0 101.0 L 62.0 102.0 L 53.0 99.0 L 50.0 95.0 Z M 77.0 80.0 L 85.0 88.0 L 79.0 94.0 L 77.0 91.0 Z M 83.0 79.0 L 85.0 77.0 L 88.0 77.0 L 91.0 82.0 L 86.0 82.0 Z M 58.0 60.0 L 61.0 58.0 L 63.0 61.0 L 60.0 63.0 Z"/>
</svg>
