<svg xmlns="http://www.w3.org/2000/svg" viewBox="0 0 157 204" width="157" height="204" shape-rendering="geometricPrecision"><title>mahjong tile 12</title>
<path fill="#221815" fill-rule="evenodd" d="M 6.0 3.0 L 2.0 9.0 L 3.0 196.0 L 7.0 200.0 L 11.0 201.0 L 149.0 200.0 L 154.0 193.0 L 154.0 9.0 L 151.0 4.0 L 143.0 1.0 L 12.0 1.0 Z M 8.0 5.0 L 13.0 3.0 L 143.0 3.0 L 151.0 8.0 L 152.0 192.0 L 147.0 198.0 L 11.0 199.0 L 5.0 194.0 L 4.0 10.0 Z"/>
<path fill="#21983A" fill-rule="evenodd" d="M 75.0 104.0 L 70.0 108.0 L 68.0 113.0 L 68.0 122.0 L 70.0 127.0 L 68.0 141.0 L 70.0 156.0 L 68.0 160.0 L 68.0 169.0 L 70.0 175.0 L 73.0 178.0 L 80.0 179.0 L 85.0 176.0 L 88.0 170.0 L 88.0 160.0 L 86.0 157.0 L 86.0 151.0 L 88.0 147.0 L 86.0 135.0 L 88.0 113.0 L 83.0 105.0 Z M 76.0 112.0 L 80.0 112.0 L 82.0 114.0 L 80.0 127.0 L 80.0 158.0 L 82.0 167.0 L 81.0 171.0 L 78.0 174.0 L 74.0 171.0 L 74.0 162.0 L 76.0 158.0 L 74.0 138.0 L 76.0 127.0 L 73.0 115.0 Z M 76.0 23.0 L 70.0 27.0 L 68.0 32.0 L 68.0 41.0 L 70.0 46.0 L 68.0 60.0 L 70.0 75.0 L 68.0 79.0 L 68.0 88.0 L 72.0 96.0 L 75.0 98.0 L 81.0 98.0 L 85.0 95.0 L 88.0 89.0 L 88.0 79.0 L 86.0 75.0 L 88.0 59.0 L 85.0 49.0 L 88.0 41.0 L 88.0 32.0 L 83.0 24.0 Z M 76.0 31.0 L 80.0 31.0 L 82.0 33.0 L 80.0 46.0 L 80.0 76.0 L 82.0 87.0 L 79.0 92.0 L 76.0 92.0 L 74.0 90.0 L 74.0 81.0 L 76.0 76.0 L 74.0 57.0 L 76.0 45.0 L 73.0 34.0 Z"/>
</svg>
