<svg xmlns="http://www.w3.org/2000/svg" viewBox="0 0 156 205" width="156" height="205" shape-rendering="geometricPrecision"><title>mahjong tile 16</title>
<path fill="#221815" fill-rule="evenodd" d="M 4.0 5.0 L 1.0 10.0 L 2.0 196.0 L 9.0 202.0 L 148.0 201.0 L 154.0 193.0 L 154.0 12.0 L 152.0 7.0 L 145.0 2.0 L 10.0 2.0 Z M 10.0 4.0 L 144.0 4.0 L 151.0 10.0 L 151.0 194.0 L 148.0 198.0 L 144.0 200.0 L 11.0 200.0 L 5.0 196.0 L 4.0 10.0 Z"/>
<path fill="#21983A" fill-rule="evenodd" d="M 110.0 105.0 L 102.0 113.0 L 102.0 125.0 L 104.0 129.0 L 102.0 140.0 L 102.0 149.0 L 104.0 153.0 L 102.0 161.0 L 102.0 171.0 L 104.0 176.0 L 108.0 180.0 L 116.0 180.0 L 120.0 176.0 L 122.0 171.0 L 122.0 162.0 L 120.0 157.0 L 122.0 148.0 L 120.0 135.0 L 122.0 115.0 L 118.0 107.0 Z M 110.0 113.0 L 113.0 113.0 L 117.0 118.0 L 114.0 127.0 L 114.0 161.0 L 116.0 170.0 L 112.0 175.0 L 108.0 171.0 L 108.0 164.0 L 110.0 160.0 L 110.0 127.0 L 107.0 117.0 Z M 76.0 105.0 L 69.0 110.0 L 67.0 118.0 L 69.0 128.0 L 69.0 158.0 L 67.0 167.0 L 68.0 173.0 L 72.0 179.0 L 81.0 180.0 L 86.0 175.0 L 88.0 169.0 L 88.0 163.0 L 85.0 156.0 L 87.0 150.0 L 85.0 129.0 L 88.0 117.0 L 86.0 110.0 L 82.0 106.0 Z M 76.0 113.0 L 79.0 113.0 L 82.0 117.0 L 79.0 129.0 L 81.0 141.0 L 79.0 153.0 L 81.0 171.0 L 78.0 175.0 L 76.0 175.0 L 73.0 171.0 L 73.0 165.0 L 75.0 161.0 L 75.0 126.0 L 73.0 122.0 L 73.0 116.0 Z M 41.0 105.0 L 35.0 109.0 L 33.0 114.0 L 33.0 124.0 L 35.0 129.0 L 33.0 148.0 L 35.0 153.0 L 33.0 161.0 L 33.0 171.0 L 35.0 176.0 L 39.0 180.0 L 47.0 180.0 L 53.0 171.0 L 53.0 162.0 L 50.0 156.0 L 53.0 147.0 L 50.0 133.0 L 53.0 123.0 L 53.0 115.0 L 51.0 110.0 L 47.0 106.0 Z M 41.0 113.0 L 44.0 113.0 L 47.0 116.0 L 47.0 122.0 L 45.0 126.0 L 46.0 172.0 L 43.0 175.0 L 38.0 170.0 L 41.0 158.0 L 39.0 149.0 L 41.0 129.0 L 38.0 121.0 L 38.0 116.0 Z M 111.0 23.0 L 105.0 26.0 L 102.0 31.0 L 102.0 43.0 L 104.0 47.0 L 102.0 58.0 L 102.0 66.0 L 104.0 71.0 L 102.0 78.0 L 102.0 89.0 L 107.0 97.0 L 115.0 98.0 L 120.0 94.0 L 122.0 90.0 L 122.0 80.0 L 120.0 75.0 L 122.0 66.0 L 120.0 53.0 L 122.0 33.0 L 119.0 26.0 Z M 110.0 31.0 L 114.0 31.0 L 117.0 35.0 L 114.0 45.0 L 114.0 79.0 L 116.0 88.0 L 112.0 93.0 L 108.0 90.0 L 108.0 82.0 L 110.0 78.0 L 110.0 45.0 L 107.0 35.0 Z M 76.0 23.0 L 73.0 24.0 L 68.0 30.0 L 69.0 76.0 L 67.0 85.0 L 70.0 95.0 L 75.0 98.0 L 80.0 98.0 L 86.0 93.0 L 88.0 87.0 L 88.0 81.0 L 85.0 74.0 L 87.0 68.0 L 85.0 47.0 L 88.0 40.0 L 88.0 35.0 L 86.0 28.0 L 82.0 24.0 Z M 76.0 31.0 L 79.0 31.0 L 82.0 35.0 L 79.0 46.0 L 81.0 59.0 L 79.0 77.0 L 81.0 88.0 L 78.0 93.0 L 76.0 93.0 L 73.0 89.0 L 73.0 83.0 L 75.0 79.0 L 75.0 44.0 L 73.0 40.0 L 73.0 34.0 Z M 41.0 23.0 L 35.0 27.0 L 33.0 32.0 L 33.0 42.0 L 35.0 47.0 L 33.0 66.0 L 35.0 71.0 L 33.0 79.0 L 33.0 89.0 L 38.0 97.0 L 46.0 98.0 L 50.0 95.0 L 53.0 89.0 L 53.0 80.0 L 51.0 76.0 L 53.0 61.0 L 50.0 50.0 L 53.0 41.0 L 53.0 33.0 L 51.0 28.0 L 47.0 24.0 Z M 41.0 31.0 L 44.0 31.0 L 47.0 34.0 L 45.0 44.0 L 46.0 90.0 L 43.0 93.0 L 38.0 88.0 L 41.0 75.0 L 39.0 66.0 L 41.0 47.0 L 38.0 39.0 L 38.0 34.0 Z"/>
</svg>
