<svg xmlns="http://www.w3.org/2000/svg" viewBox="0 0 157 205" width="157" height="205" shape-rendering="geometricPrecision"><title>mahjong tile 17</title>
<path fill="#221815" fill-rule="evenodd" d="M 8.0 3.0 L 2.0 11.0 L 2.0 193.0 L 4.0 197.0 L 11.0 202.0 L 147.0 202.0 L 152.0 199.0 L 154.0 196.0 L 153.0 7.0 L 146.0 2.0 Z M 10.0 5.0 L 148.0 5.0 L 152.0 10.0 L 152.0 194.0 L 148.0 199.0 L 11.0 200.0 L 5.0 195.0 L 4.0 12.0 Z"/>
<path fill="#21983A" fill-rule="evenodd" d="M 111.0 130.0 L 105.0 134.0 L 104.0 138.0 L 106.0 146.0 L 106.0 165.0 L 104.0 171.0 L 105.0 175.0 L 109.0 179.0 L 115.0 180.0 L 118.0 179.0 L 122.0 174.0 L 122.0 167.0 L 120.0 164.0 L 122.0 159.0 L 120.0 148.0 L 122.0 143.0 L 122.0 136.0 L 118.0 131.0 Z M 113.0 135.0 L 117.0 138.0 L 115.0 146.0 L 115.0 165.0 L 117.0 173.0 L 114.0 176.0 L 109.0 173.0 L 111.0 167.0 L 111.0 144.0 L 109.0 138.0 Z M 41.0 130.0 L 35.0 135.0 L 34.0 138.0 L 36.0 145.0 L 36.0 151.0 L 34.0 155.0 L 36.0 165.0 L 34.0 172.0 L 39.0 179.0 L 46.0 180.0 L 53.0 174.0 L 53.0 168.0 L 51.0 165.0 L 53.0 158.0 L 51.0 150.0 L 53.0 137.0 L 50.0 132.0 Z M 43.0 135.0 L 48.0 138.0 L 45.0 145.0 L 47.0 154.0 L 45.0 166.0 L 47.0 173.0 L 44.0 176.0 L 40.0 173.0 L 42.0 166.0 L 42.0 145.0 L 40.0 138.0 Z M 112.0 77.0 L 107.0 79.0 L 104.0 85.0 L 106.0 92.0 L 106.0 112.0 L 104.0 119.0 L 107.0 125.0 L 116.0 127.0 L 122.0 121.0 L 122.0 113.0 L 120.0 111.0 L 122.0 106.0 L 120.0 95.0 L 122.0 90.0 L 122.0 82.0 L 118.0 78.0 Z M 111.0 83.0 L 115.0 83.0 L 117.0 85.0 L 117.0 90.0 L 115.0 92.0 L 117.0 101.0 L 115.0 112.0 L 117.0 120.0 L 114.0 123.0 L 109.0 120.0 L 111.0 114.0 L 111.0 91.0 L 109.0 85.0 Z M 43.0 77.0 L 37.0 79.0 L 34.0 85.0 L 37.0 94.0 L 34.0 103.0 L 36.0 108.0 L 34.0 119.0 L 39.0 126.0 L 47.0 127.0 L 53.0 120.0 L 53.0 115.0 L 51.0 112.0 L 53.0 105.0 L 51.0 97.0 L 53.0 83.0 L 50.0 79.0 Z M 42.0 83.0 L 46.0 83.0 L 48.0 85.0 L 45.0 92.0 L 47.0 101.0 L 45.0 113.0 L 47.0 120.0 L 44.0 123.0 L 40.0 121.0 L 42.0 113.0 L 42.0 92.0 L 40.0 85.0 Z"/>
<path fill="#D11228" fill-rule="evenodd" d="M 77.0 24.0 L 70.0 29.0 L 69.0 33.0 L 72.0 41.0 L 70.0 47.0 L 70.0 69.0 L 74.0 73.0 L 81.0 74.0 L 86.0 71.0 L 88.0 65.0 L 86.0 58.0 L 87.0 28.0 L 84.0 25.0 Z M 78.0 29.0 L 83.0 32.0 L 80.0 40.0 L 82.0 47.0 L 80.0 57.0 L 82.0 67.0 L 79.0 70.0 L 75.0 68.0 L 75.0 32.0 Z"/>
<path fill="#2926A5" fill-rule="evenodd" d="M 76.0 130.0 L 70.0 135.0 L 69.0 139.0 L 72.0 146.0 L 70.0 153.0 L 70.0 159.0 L 72.0 162.0 L 70.0 166.0 L 70.0 174.0 L 74.0 179.0 L 80.0 180.0 L 87.0 175.0 L 88.0 171.0 L 86.0 164.0 L 87.0 135.0 L 81.0 130.0 Z M 78.0 135.0 L 83.0 138.0 L 80.0 146.0 L 82.0 153.0 L 82.0 159.0 L 80.0 163.0 L 82.0 173.0 L 79.0 176.0 L 75.0 174.0 L 75.0 138.0 Z M 77.0 77.0 L 70.0 82.0 L 69.0 86.0 L 72.0 93.0 L 70.0 100.0 L 72.0 111.0 L 69.0 117.0 L 71.0 123.0 L 74.0 126.0 L 81.0 127.0 L 86.0 124.0 L 88.0 118.0 L 86.0 112.0 L 87.0 81.0 L 83.0 78.0 Z M 78.0 82.0 L 83.0 85.0 L 80.0 93.0 L 82.0 100.0 L 82.0 121.0 L 80.0 123.0 L 77.0 123.0 L 75.0 121.0 L 75.0 85.0 Z"/>
</svg>
