<svg xmlns="http://www.w3.org/2000/svg" viewBox="0 0 156 204" width="156" height="204" shape-rendering="geometricPrecision"><title>mahjong tile 11</title>
<path fill="#221815" fill-rule="evenodd" d="M 7.0 2.0 L 1.0 9.0 L 1.0 193.0 L 3.0 197.0 L 10.0 201.0 L 148.0 200.0 L 154.0 192.0 L 154.0 11.0 L 152.0 6.0 L 148.0 2.0 L 143.0 1.0 Z M 9.0 4.0 L 142.0 3.0 L 146.0 4.0 L 151.0 9.0 L 151.0 194.0 L 144.0 199.0 L 11.0 199.0 L 5.0 195.0 L 4.0 9.0 Z"/>
<path fill="#21983A" fill-rule="evenodd" d="M 35.0 108.0 L 32.0 117.0 L 34.0 126.0 L 34.0 159.0 L 32.0 167.0 L 34.0 175.0 L 37.0 178.0 L 45.0 179.0 L 51.0 173.0 L 52.0 163.0 L 49.0 153.0 L 52.0 143.0 L 63.0 151.0 L 67.0 160.0 L 74.0 166.0 L 80.0 166.0 L 88.0 159.0 L 92.0 151.0 L 102.0 143.0 L 105.0 150.0 L 105.0 156.0 L 103.0 160.0 L 104.0 174.0 L 107.0 178.0 L 110.0 179.0 L 118.0 178.0 L 121.0 175.0 L 122.0 160.0 L 120.0 152.0 L 122.0 146.0 L 122.0 113.0 L 116.0 105.0 L 110.0 105.0 L 107.0 107.0 L 98.0 121.0 L 90.0 127.0 L 83.0 139.0 L 78.0 143.0 L 76.0 143.0 L 71.0 138.0 L 67.0 130.0 L 56.0 120.0 L 54.0 114.0 L 47.0 106.0 L 39.0 105.0 Z M 104.0 127.0 L 101.0 134.0 L 86.0 149.0 L 85.0 154.0 L 80.0 159.0 L 75.0 159.0 L 71.0 155.0 L 68.0 148.0 L 56.0 137.0 L 50.0 128.0 L 51.0 126.0 L 56.0 128.0 L 74.0 149.0 L 79.0 150.0 L 87.0 143.0 L 90.0 137.0 L 102.0 125.0 Z M 111.0 111.0 L 113.0 111.0 L 117.0 117.0 L 114.0 128.0 L 116.0 136.0 L 114.0 156.0 L 117.0 163.0 L 117.0 169.0 L 113.0 172.0 L 108.0 168.0 L 111.0 156.0 L 109.0 143.0 L 111.0 130.0 L 109.0 113.0 Z M 41.0 111.0 L 44.0 111.0 L 46.0 113.0 L 46.0 122.0 L 44.0 127.0 L 46.0 138.0 L 44.0 152.0 L 46.0 169.0 L 43.0 172.0 L 38.0 169.0 L 38.0 161.0 L 40.0 158.0 L 38.0 143.0 L 40.0 125.0 L 38.0 121.0 L 38.0 115.0 Z M 35.0 26.0 L 32.0 35.0 L 34.0 44.0 L 34.0 76.0 L 32.0 86.0 L 34.0 93.0 L 38.0 97.0 L 46.0 97.0 L 54.0 88.0 L 57.0 81.0 L 66.0 74.0 L 72.0 63.0 L 77.0 59.0 L 84.0 65.0 L 89.0 74.0 L 97.0 80.0 L 100.0 87.0 L 109.0 97.0 L 114.0 98.0 L 120.0 94.0 L 122.0 90.0 L 122.0 57.0 L 120.0 51.0 L 122.0 31.0 L 119.0 25.0 L 110.0 23.0 L 105.0 27.0 L 103.0 31.0 L 105.0 52.0 L 102.0 59.0 L 99.0 58.0 L 91.0 50.0 L 85.0 40.0 L 81.0 37.0 L 75.0 36.0 L 68.0 41.0 L 63.0 51.0 L 53.0 60.0 L 51.0 59.0 L 49.0 50.0 L 52.0 40.0 L 52.0 33.0 L 49.0 26.0 L 44.0 23.0 L 40.0 23.0 Z M 51.0 73.0 L 55.0 67.0 L 66.0 57.0 L 71.0 47.0 L 75.0 43.0 L 79.0 43.0 L 84.0 47.0 L 87.0 55.0 L 100.0 67.0 L 104.0 76.0 L 102.0 77.0 L 91.0 67.0 L 87.0 59.0 L 78.0 52.0 L 73.0 54.0 L 62.0 69.0 L 53.0 77.0 L 51.0 76.0 Z M 111.0 31.0 L 114.0 31.0 L 117.0 34.0 L 117.0 39.0 L 114.0 47.0 L 116.0 55.0 L 114.0 75.0 L 117.0 85.0 L 116.0 89.0 L 113.0 92.0 L 109.0 89.0 L 109.0 81.0 L 111.0 76.0 L 109.0 59.0 L 111.0 47.0 L 108.0 34.0 Z M 40.0 31.0 L 44.0 31.0 L 46.0 33.0 L 46.0 41.0 L 44.0 46.0 L 44.0 76.0 L 46.0 81.0 L 46.0 89.0 L 43.0 92.0 L 38.0 87.0 L 40.0 77.0 L 38.0 63.0 L 40.0 45.0 L 38.0 41.0 L 38.0 33.0 Z"/>
</svg>
