<svg xmlns="http://www.w3.org/2000/svg" viewBox="0 0 157 204" width="157" height="204" shape-rendering="geometricPrecision"><title>mahjong tile 10</title>
<path fill="#221815" fill-rule="evenodd" d="M 6.0 3.0 L 2.0 9.0 L 2.0 194.0 L 7.0 200.0 L 11.0 201.0 L 149.0 200.0 L 154.0 193.0 L 154.0 10.0 L 152.0 5.0 L 144.0 1.0 L 12.0 1.0 Z M 8.0 5.0 L 13.0 3.0 L 143.0 3.0 L 150.0 7.0 L 152.0 11.0 L 152.0 192.0 L 147.0 198.0 L 11.0 199.0 L 4.0 193.0 L 4.0 10.0 Z"/>
<path fill="#21983A" fill-rule="evenodd" d="M 110.0 129.0 L 103.0 134.0 L 103.0 142.0 L 105.0 145.0 L 103.0 152.0 L 103.0 173.0 L 107.0 178.0 L 112.0 179.0 L 117.0 178.0 L 120.0 175.0 L 121.0 171.0 L 119.0 164.0 L 119.0 145.0 L 121.0 138.0 L 120.0 133.0 L 117.0 130.0 Z M 110.0 134.0 L 113.0 134.0 L 116.0 137.0 L 113.0 146.0 L 115.0 151.0 L 115.0 172.0 L 112.0 175.0 L 108.0 172.0 L 110.0 147.0 L 108.0 136.0 Z M 43.0 129.0 L 39.0 130.0 L 35.0 135.0 L 35.0 141.0 L 37.0 145.0 L 35.0 154.0 L 37.0 161.0 L 35.0 172.0 L 38.0 177.0 L 45.0 179.0 L 49.0 178.0 L 53.0 174.0 L 53.0 151.0 L 51.0 147.0 L 53.0 143.0 L 53.0 134.0 L 51.0 131.0 Z M 43.0 134.0 L 48.0 137.0 L 48.0 141.0 L 46.0 143.0 L 46.0 165.0 L 48.0 171.0 L 45.0 175.0 L 41.0 173.0 L 42.0 142.0 L 40.0 137.0 Z M 110.0 76.0 L 103.0 81.0 L 103.0 89.0 L 105.0 93.0 L 103.0 99.0 L 103.0 105.0 L 105.0 108.0 L 103.0 112.0 L 103.0 121.0 L 109.0 126.0 L 114.0 126.0 L 120.0 122.0 L 121.0 118.0 L 119.0 111.0 L 119.0 92.0 L 121.0 85.0 L 120.0 80.0 L 117.0 77.0 Z M 110.0 82.0 L 114.0 82.0 L 116.0 84.0 L 114.0 90.0 L 115.0 119.0 L 112.0 122.0 L 108.0 120.0 L 110.0 110.0 L 108.0 84.0 Z M 42.0 76.0 L 35.0 82.0 L 35.0 88.0 L 37.0 91.0 L 35.0 100.0 L 37.0 111.0 L 35.0 113.0 L 35.0 119.0 L 40.0 125.0 L 47.0 126.0 L 53.0 121.0 L 53.0 98.0 L 51.0 94.0 L 53.0 90.0 L 53.0 81.0 L 47.0 76.0 Z M 42.0 82.0 L 46.0 82.0 L 48.0 84.0 L 46.0 91.0 L 46.0 113.0 L 48.0 119.0 L 45.0 122.0 L 41.0 120.0 L 42.0 89.0 L 40.0 84.0 Z M 107.0 24.0 L 103.0 28.0 L 103.0 37.0 L 105.0 40.0 L 103.0 46.0 L 103.0 53.0 L 105.0 56.0 L 103.0 59.0 L 103.0 67.0 L 106.0 72.0 L 114.0 73.0 L 120.0 69.0 L 121.0 65.0 L 119.0 58.0 L 119.0 39.0 L 121.0 32.0 L 120.0 27.0 L 117.0 24.0 Z M 110.0 28.0 L 113.0 28.0 L 116.0 31.0 L 113.0 40.0 L 115.0 45.0 L 115.0 52.0 L 113.0 57.0 L 115.0 67.0 L 113.0 69.0 L 110.0 69.0 L 108.0 67.0 L 110.0 41.0 L 108.0 30.0 Z M 40.0 24.0 L 35.0 29.0 L 35.0 35.0 L 37.0 39.0 L 35.0 48.0 L 37.0 58.0 L 35.0 61.0 L 35.0 66.0 L 39.0 72.0 L 47.0 73.0 L 50.0 72.0 L 53.0 68.0 L 53.0 46.0 L 51.0 41.0 L 53.0 37.0 L 53.0 28.0 L 49.0 24.0 Z M 43.0 28.0 L 48.0 31.0 L 48.0 35.0 L 46.0 37.0 L 46.0 60.0 L 48.0 66.0 L 45.0 69.0 L 41.0 67.0 L 42.0 37.0 L 40.0 31.0 Z"/>
<path fill="#D11228" fill-rule="evenodd" d="M 76.0 129.0 L 72.0 130.0 L 68.0 136.0 L 70.0 144.0 L 68.0 155.0 L 70.0 164.0 L 68.0 171.0 L 73.0 178.0 L 79.0 179.0 L 84.0 177.0 L 87.0 171.0 L 85.0 164.0 L 85.0 144.0 L 87.0 136.0 L 83.0 130.0 Z M 76.0 134.0 L 82.0 137.0 L 79.0 145.0 L 81.0 153.0 L 79.0 165.0 L 81.0 172.0 L 78.0 175.0 L 74.0 173.0 L 76.0 146.0 L 74.0 136.0 Z M 76.0 76.0 L 73.0 77.0 L 68.0 83.0 L 68.0 88.0 L 71.0 93.0 L 68.0 102.0 L 70.0 107.0 L 68.0 119.0 L 73.0 125.0 L 80.0 126.0 L 87.0 119.0 L 85.0 111.0 L 87.0 103.0 L 85.0 91.0 L 87.0 84.0 L 85.0 79.0 Z M 76.0 82.0 L 80.0 82.0 L 82.0 84.0 L 79.0 91.0 L 81.0 100.0 L 79.0 112.0 L 81.0 119.0 L 78.0 122.0 L 74.0 120.0 L 76.0 110.0 L 74.0 100.0 L 76.0 93.0 L 74.0 84.0 Z M 73.0 24.0 L 68.0 30.0 L 68.0 34.0 L 71.0 40.0 L 68.0 49.0 L 70.0 54.0 L 68.0 66.0 L 73.0 72.0 L 79.0 73.0 L 83.0 72.0 L 87.0 66.0 L 87.0 61.0 L 85.0 58.0 L 85.0 39.0 L 87.0 30.0 L 86.0 27.0 L 82.0 24.0 Z M 76.0 28.0 L 82.0 31.0 L 79.0 38.0 L 81.0 47.0 L 79.0 59.0 L 81.0 66.0 L 78.0 69.0 L 74.0 67.0 L 76.0 57.0 L 76.0 40.0 L 74.0 30.0 Z"/>
</svg>
