<svg xmlns="http://www.w3.org/2000/svg" viewBox="0 0 156 204" width="156" height="204" shape-rendering="geometricPrecision"><title>mahjong tile 26</title>
<path fill="#221815" fill-rule="evenodd" d="M 6.0 3.0 L 0.0 10.0 L 0.0 193.0 L 2.0 197.0 L 10.0 202.0 L 144.0 202.0 L 148.0 200.0 L 153.0 194.0 L 153.0 10.0 L 150.0 5.0 L 146.0 2.0 Z M 7.0 5.0 L 145.0 4.0 L 150.0 9.0 L 151.0 191.0 L 145.0 199.0 L 10.0 200.0 L 4.0 195.0 L 3.0 10.0 Z"/>
<path fill="#D11228" fill-rule="evenodd" d="M 81.0 84.0 L 80.0 86.0 L 84.0 90.0 L 84.0 95.0 L 80.0 101.0 L 73.0 102.0 L 69.0 95.0 L 65.0 92.0 L 60.0 92.0 L 59.0 93.0 L 63.0 99.0 L 63.0 104.0 L 58.0 107.0 L 49.0 108.0 L 52.0 115.0 L 56.0 115.0 L 62.0 111.0 L 66.0 115.0 L 60.0 121.0 L 57.0 120.0 L 55.0 122.0 L 55.0 126.0 L 63.0 144.0 L 50.0 153.0 L 50.0 156.0 L 48.0 158.0 L 44.0 158.0 L 43.0 161.0 L 46.0 164.0 L 51.0 164.0 L 52.0 169.0 L 57.0 176.0 L 59.0 173.0 L 57.0 160.0 L 59.0 158.0 L 62.0 158.0 L 69.0 154.0 L 73.0 156.0 L 69.0 161.0 L 61.0 163.0 L 62.0 167.0 L 65.0 169.0 L 85.0 162.0 L 89.0 162.0 L 94.0 165.0 L 96.0 163.0 L 96.0 158.0 L 90.0 150.0 L 104.0 148.0 L 106.0 150.0 L 102.0 167.0 L 99.0 170.0 L 88.0 171.0 L 95.0 180.0 L 99.0 182.0 L 103.0 179.0 L 110.0 169.0 L 117.0 149.0 L 110.0 142.0 L 82.0 145.0 L 80.0 143.0 L 85.0 138.0 L 91.0 140.0 L 104.0 121.0 L 102.0 116.0 L 97.0 112.0 L 84.0 113.0 L 82.0 111.0 L 89.0 104.0 L 104.0 103.0 L 107.0 101.0 L 102.0 96.0 L 93.0 97.0 L 93.0 88.0 L 89.0 85.0 Z M 79.0 153.0 L 83.0 150.0 L 87.0 155.0 L 85.0 157.0 L 81.0 157.0 Z M 73.0 145.0 L 68.0 150.0 L 55.0 155.0 L 52.0 154.0 L 58.0 149.0 L 61.0 149.0 L 71.0 143.0 Z M 63.0 137.0 L 64.0 131.0 L 70.0 132.0 L 66.0 138.0 Z M 72.0 122.0 L 70.0 125.0 L 63.0 128.0 L 60.0 125.0 L 63.0 121.0 L 70.0 120.0 Z M 91.0 116.0 L 93.0 120.0 L 88.0 132.0 L 84.0 134.0 L 81.0 131.0 L 87.0 126.0 L 87.0 124.0 L 81.0 119.0 Z M 78.0 103.0 L 80.0 105.0 L 78.0 110.0 L 70.0 116.0 L 68.0 114.0 L 71.0 106.0 Z"/>
<path fill="#2926A5" fill-rule="evenodd" d="M 40.0 50.0 L 45.0 52.0 L 56.0 48.0 L 77.0 46.0 L 114.0 51.0 L 121.0 47.0 L 123.0 40.0 L 68.0 39.0 L 55.0 41.0 L 49.0 39.0 L 40.0 46.0 Z"/>
</svg>
