<svg xmlns="http://www.w3.org/2000/svg" viewBox="0 0 157 204" width="157" height="204" shape-rendering="geometricPrecision"><title>mahjong tile 30</title>
<path fill="#221815" fill-rule="evenodd" d="M 8.0 2.0 L 3.0 6.0 L 1.0 10.0 L 2.0 196.0 L 6.0 200.0 L 11.0 202.0 L 144.0 202.0 L 149.0 200.0 L 154.0 192.0 L 153.0 8.0 L 146.0 2.0 Z M 9.0 4.0 L 145.0 4.0 L 151.0 9.0 L 151.0 194.0 L 146.0 199.0 L 11.0 200.0 L 4.0 194.0 L 4.0 10.0 Z"/>
<path fill="#D11228" fill-rule="evenodd" d="M 81.0 84.0 L 84.0 89.0 L 84.0 97.0 L 81.0 101.0 L 73.0 102.0 L 71.0 100.0 L 71.0 97.0 L 66.0 92.0 L 61.0 92.0 L 60.0 93.0 L 63.0 97.0 L 63.0 104.0 L 58.0 107.0 L 50.0 108.0 L 50.0 111.0 L 53.0 115.0 L 57.0 115.0 L 63.0 111.0 L 66.0 114.0 L 66.0 117.0 L 61.0 121.0 L 58.0 120.0 L 56.0 122.0 L 59.0 135.0 L 64.0 144.0 L 52.0 151.0 L 51.0 156.0 L 47.0 159.0 L 45.0 158.0 L 44.0 161.0 L 47.0 164.0 L 51.0 163.0 L 53.0 170.0 L 57.0 175.0 L 59.0 175.0 L 59.0 165.0 L 57.0 161.0 L 59.0 159.0 L 70.0 154.0 L 73.0 156.0 L 69.0 161.0 L 62.0 163.0 L 62.0 167.0 L 65.0 169.0 L 69.0 169.0 L 75.0 165.0 L 85.0 162.0 L 90.0 162.0 L 95.0 165.0 L 97.0 163.0 L 97.0 159.0 L 90.0 150.0 L 105.0 148.0 L 107.0 151.0 L 102.0 168.0 L 100.0 170.0 L 89.0 170.0 L 96.0 181.0 L 100.0 182.0 L 105.0 177.0 L 113.0 164.0 L 117.0 147.0 L 110.0 142.0 L 83.0 145.0 L 81.0 143.0 L 81.0 141.0 L 86.0 138.0 L 92.0 140.0 L 105.0 121.0 L 103.0 116.0 L 98.0 112.0 L 83.0 111.0 L 89.0 104.0 L 107.0 102.0 L 107.0 100.0 L 102.0 96.0 L 93.0 97.0 L 92.0 96.0 L 94.0 89.0 L 87.0 84.0 Z M 83.0 150.0 L 87.0 154.0 L 86.0 157.0 L 80.0 156.0 L 80.0 153.0 Z M 73.0 145.0 L 73.0 147.0 L 69.0 150.0 L 56.0 155.0 L 53.0 153.0 L 56.0 150.0 L 59.0 150.0 L 70.0 144.0 Z M 64.0 137.0 L 64.0 131.0 L 69.0 131.0 L 71.0 133.0 L 66.0 138.0 Z M 73.0 122.0 L 71.0 125.0 L 64.0 128.0 L 61.0 126.0 L 61.0 123.0 L 63.0 121.0 L 71.0 120.0 Z M 92.0 116.0 L 94.0 119.0 L 88.0 133.0 L 85.0 134.0 L 82.0 132.0 L 82.0 130.0 L 87.0 127.0 L 88.0 124.0 L 82.0 119.0 Z M 79.0 103.0 L 81.0 105.0 L 79.0 109.0 L 70.0 116.0 L 69.0 113.0 L 72.0 106.0 Z"/>
<path fill="#2926A5" fill-rule="evenodd" d="M 27.0 70.0 L 34.0 71.0 L 47.0 67.0 L 76.0 67.0 L 101.0 73.0 L 109.0 73.0 L 116.0 67.0 L 116.0 62.0 L 114.0 60.0 L 95.0 59.0 L 93.0 57.0 L 94.0 41.0 L 90.0 38.0 L 77.0 39.0 L 75.0 37.0 L 77.0 30.0 L 80.0 27.0 L 101.0 27.0 L 102.0 24.0 L 100.0 22.0 L 46.0 20.0 L 40.0 25.0 L 40.0 28.0 L 42.0 30.0 L 65.0 27.0 L 67.0 29.0 L 66.0 34.0 L 63.0 38.0 L 58.0 39.0 L 53.0 37.0 L 46.0 41.0 L 47.0 46.0 L 54.0 46.0 L 59.0 44.0 L 61.0 48.0 L 54.0 59.0 L 33.0 60.0 L 27.0 65.0 Z M 74.0 44.0 L 83.0 44.0 L 85.0 46.0 L 85.0 55.0 L 82.0 59.0 L 68.0 59.0 L 66.0 57.0 Z"/>
</svg>
