<svg xmlns="http://www.w3.org/2000/svg" viewBox="0 0 156 205" width="156" height="205" shape-rendering="geometricPrecision"><title>mahjong tile 31</title>
<path fill="#221815" fill-rule="evenodd" d="M 6.0 3.0 L 0.0 11.0 L 0.0 193.0 L 2.0 197.0 L 9.0 202.0 L 147.0 201.0 L 153.0 194.0 L 153.0 10.0 L 151.0 6.0 L 145.0 2.0 Z M 6.0 6.0 L 9.0 4.0 L 144.0 4.0 L 150.0 9.0 L 151.0 191.0 L 150.0 195.0 L 144.0 200.0 L 10.0 200.0 L 4.0 195.0 L 3.0 11.0 Z"/>
<path fill="#D11228" fill-rule="evenodd" d="M 81.0 84.0 L 80.0 86.0 L 84.0 90.0 L 84.0 95.0 L 80.0 101.0 L 73.0 103.0 L 68.0 94.0 L 60.0 92.0 L 59.0 93.0 L 62.0 96.0 L 63.0 104.0 L 59.0 107.0 L 49.0 108.0 L 50.0 113.0 L 54.0 116.0 L 61.0 112.0 L 64.0 112.0 L 66.0 115.0 L 62.0 120.0 L 55.0 122.0 L 55.0 126.0 L 63.0 144.0 L 50.0 153.0 L 50.0 156.0 L 47.0 159.0 L 43.0 159.0 L 43.0 161.0 L 46.0 164.0 L 50.0 163.0 L 52.0 165.0 L 52.0 169.0 L 57.0 176.0 L 59.0 169.0 L 56.0 161.0 L 58.0 159.0 L 63.0 158.0 L 69.0 154.0 L 72.0 156.0 L 69.0 161.0 L 61.0 163.0 L 61.0 166.0 L 64.0 169.0 L 68.0 169.0 L 80.0 163.0 L 87.0 162.0 L 93.0 165.0 L 96.0 163.0 L 96.0 158.0 L 90.0 150.0 L 96.0 148.0 L 104.0 148.0 L 106.0 150.0 L 101.0 169.0 L 99.0 171.0 L 88.0 171.0 L 98.0 182.0 L 104.0 178.0 L 110.0 169.0 L 117.0 150.0 L 116.0 147.0 L 109.0 142.0 L 86.0 145.0 L 80.0 144.0 L 80.0 142.0 L 86.0 138.0 L 91.0 140.0 L 104.0 122.0 L 102.0 116.0 L 99.0 113.0 L 84.0 113.0 L 82.0 111.0 L 90.0 104.0 L 104.0 103.0 L 107.0 101.0 L 101.0 96.0 L 93.0 97.0 L 93.0 88.0 L 88.0 85.0 Z M 79.0 153.0 L 81.0 151.0 L 84.0 151.0 L 87.0 155.0 L 85.0 157.0 L 80.0 157.0 Z M 73.0 145.0 L 73.0 147.0 L 69.0 150.0 L 56.0 155.0 L 53.0 154.0 L 55.0 151.0 L 71.0 143.0 Z M 63.0 137.0 L 64.0 131.0 L 68.0 131.0 L 70.0 133.0 L 66.0 138.0 Z M 72.0 122.0 L 70.0 125.0 L 64.0 128.0 L 60.0 125.0 L 64.0 121.0 L 70.0 120.0 Z M 92.0 117.0 L 93.0 120.0 L 88.0 132.0 L 86.0 134.0 L 83.0 134.0 L 81.0 131.0 L 87.0 126.0 L 87.0 124.0 L 81.0 120.0 L 86.0 117.0 Z M 79.0 104.0 L 80.0 106.0 L 78.0 110.0 L 70.0 116.0 L 68.0 114.0 L 71.0 107.0 L 74.0 104.0 Z"/>
<path fill="#2926A5" fill-rule="evenodd" d="M 82.0 48.0 L 81.0 54.0 L 87.0 61.0 L 102.0 70.0 L 108.0 72.0 L 111.0 71.0 L 111.0 68.0 L 100.0 61.0 L 93.0 54.0 L 89.0 47.0 L 85.0 46.0 Z M 71.0 49.0 L 64.0 46.0 L 60.0 53.0 L 53.0 60.0 L 42.0 65.0 L 40.0 68.0 L 42.0 70.0 L 49.0 69.0 L 61.0 64.0 L 71.0 55.0 Z M 30.0 43.0 L 37.0 44.0 L 57.0 40.0 L 73.0 39.0 L 95.0 41.0 L 113.0 45.0 L 119.0 41.0 L 121.0 34.0 L 83.0 33.0 L 81.0 31.0 L 80.0 21.0 L 76.0 18.0 L 69.0 18.0 L 67.0 20.0 L 68.0 31.0 L 66.0 33.0 L 39.0 33.0 L 32.0 37.0 Z"/>
</svg>
