<svg xmlns="http://www.w3.org/2000/svg" viewBox="0 0 157 205" width="157" height="205" shape-rendering="geometricPrecision"><title>mahjong tile 33</title>
<path fill="#221815" fill-rule="evenodd" d="M 7.0 3.0 L 1.0 11.0 L 2.0 196.0 L 10.0 202.0 L 148.0 201.0 L 154.0 193.0 L 153.0 8.0 L 146.0 2.0 Z M 8.0 5.0 L 145.0 4.0 L 151.0 9.0 L 151.0 194.0 L 145.0 200.0 L 11.0 200.0 L 5.0 196.0 L 4.0 10.0 Z"/>
<path fill="#D11228" fill-rule="evenodd" d="M 82.0 84.0 L 81.0 86.0 L 84.0 89.0 L 85.0 94.0 L 81.0 101.0 L 73.0 102.0 L 71.0 97.0 L 67.0 93.0 L 61.0 92.0 L 60.0 93.0 L 63.0 96.0 L 64.0 104.0 L 56.0 108.0 L 50.0 108.0 L 51.0 113.0 L 55.0 116.0 L 63.0 111.0 L 67.0 115.0 L 61.0 121.0 L 56.0 122.0 L 59.0 135.0 L 64.0 144.0 L 51.0 153.0 L 51.0 156.0 L 48.0 159.0 L 44.0 159.0 L 46.0 164.0 L 50.0 163.0 L 53.0 166.0 L 56.0 174.0 L 59.0 175.0 L 60.0 170.0 L 57.0 161.0 L 59.0 159.0 L 70.0 154.0 L 73.0 156.0 L 70.0 161.0 L 62.0 163.0 L 62.0 166.0 L 65.0 169.0 L 69.0 169.0 L 81.0 163.0 L 87.0 162.0 L 95.0 165.0 L 97.0 163.0 L 97.0 158.0 L 91.0 150.0 L 97.0 148.0 L 105.0 148.0 L 107.0 152.0 L 103.0 167.0 L 99.0 171.0 L 89.0 170.0 L 94.0 178.0 L 99.0 182.0 L 104.0 179.0 L 111.0 169.0 L 118.0 150.0 L 117.0 147.0 L 110.0 142.0 L 83.0 145.0 L 81.0 143.0 L 82.0 140.0 L 87.0 138.0 L 92.0 140.0 L 105.0 121.0 L 103.0 116.0 L 97.0 112.0 L 85.0 113.0 L 83.0 111.0 L 91.0 104.0 L 108.0 102.0 L 102.0 96.0 L 94.0 98.0 L 92.0 96.0 L 94.0 89.0 L 89.0 85.0 Z M 83.0 150.0 L 87.0 153.0 L 86.0 157.0 L 80.0 156.0 L 80.0 153.0 Z M 74.0 145.0 L 70.0 150.0 L 57.0 155.0 L 54.0 154.0 L 56.0 151.0 L 72.0 143.0 Z M 64.0 137.0 L 65.0 131.0 L 71.0 132.0 L 71.0 134.0 L 67.0 138.0 Z M 73.0 122.0 L 67.0 127.0 L 63.0 128.0 L 61.0 126.0 L 61.0 123.0 L 63.0 121.0 L 71.0 120.0 Z M 93.0 117.0 L 94.0 120.0 L 88.0 133.0 L 84.0 134.0 L 82.0 131.0 L 88.0 125.0 L 82.0 120.0 L 86.0 117.0 Z M 79.0 104.0 L 79.0 110.0 L 71.0 116.0 L 69.0 114.0 L 72.0 106.0 L 74.0 104.0 Z"/>
<path fill="#2926A5" fill-rule="evenodd" d="M 74.0 33.0 L 69.0 33.0 L 55.0 44.0 L 39.0 51.0 L 37.0 53.0 L 38.0 57.0 L 43.0 61.0 L 48.0 61.0 L 55.0 58.0 L 70.0 44.0 L 74.0 37.0 Z M 83.0 31.0 L 84.0 35.0 L 98.0 50.0 L 108.0 64.0 L 117.0 66.0 L 122.0 64.0 L 127.0 58.0 L 127.0 55.0 L 125.0 53.0 L 107.0 45.0 L 90.0 30.0 L 85.0 29.0 Z"/>
</svg>
