<svg xmlns="http://www.w3.org/2000/svg" viewBox="0 0 157 204" width="157" height="204" shape-rendering="geometricPrecision"><title>mahjong tile 22</title>
<path fill="#221815" fill-rule="evenodd" d="M 8.0 3.0 L 2.0 11.0 L 2.0 193.0 L 5.0 198.0 L 12.0 202.0 L 145.0 202.0 L 150.0 200.0 L 154.0 195.0 L 153.0 6.0 L 146.0 2.0 Z M 9.0 5.0 L 146.0 4.0 L 151.0 8.0 L 152.0 193.0 L 147.0 199.0 L 10.0 199.0 L 5.0 194.0 L 4.0 12.0 Z"/>
<path fill="#2926A5" fill-rule="evenodd" d="M 87.0 61.0 L 78.0 59.0 L 67.0 64.0 L 52.0 66.0 L 48.0 68.0 L 53.0 78.0 L 44.0 86.0 L 51.0 85.0 L 60.0 81.0 L 68.0 82.0 L 69.0 85.0 L 65.0 93.0 L 54.0 87.0 L 53.0 91.0 L 55.0 98.0 L 45.0 103.0 L 41.0 108.0 L 39.0 108.0 L 33.0 100.0 L 36.0 91.0 L 32.0 94.0 L 29.0 100.0 L 30.0 112.0 L 32.0 114.0 L 36.0 130.0 L 40.0 138.0 L 44.0 141.0 L 51.0 141.0 L 68.0 135.0 L 84.0 134.0 L 89.0 145.0 L 91.0 146.0 L 96.0 144.0 L 100.0 140.0 L 107.0 129.0 L 118.0 101.0 L 106.0 92.0 L 94.0 92.0 L 92.0 90.0 L 92.0 86.0 L 88.0 82.0 L 82.0 81.0 L 80.0 79.0 L 85.0 74.0 L 91.0 73.0 L 93.0 71.0 L 92.0 66.0 Z M 55.0 112.0 L 56.0 126.0 L 50.0 130.0 L 45.0 131.0 L 43.0 129.0 L 44.0 114.0 L 46.0 112.0 Z M 73.0 104.0 L 74.0 107.0 L 72.0 112.0 L 72.0 119.0 L 70.0 123.0 L 66.0 125.0 L 65.0 113.0 L 67.0 108.0 Z M 101.0 99.0 L 102.0 102.0 L 95.0 123.0 L 91.0 126.0 L 88.0 122.0 L 83.0 122.0 L 82.0 118.0 L 87.0 103.0 L 95.0 98.0 L 98.0 100.0 Z M 74.0 84.0 L 77.0 87.0 L 77.0 91.0 L 73.0 96.0 L 68.0 97.0 L 66.0 94.0 L 69.0 88.0 Z"/>
</svg>
