<svg xmlns="http://www.w3.org/2000/svg" viewBox="0 0 156 204" width="156" height="204" shape-rendering="geometricPrecision"><title>mahjong tile 25</title>
<path fill="#221815" fill-rule="evenodd" d="M 6.0 3.0 L 1.0 9.0 L 1.0 194.0 L 3.0 198.0 L 11.0 202.0 L 143.0 202.0 L 150.0 199.0 L 153.0 194.0 L 152.0 7.0 L 146.0 2.0 Z M 7.0 5.0 L 144.0 4.0 L 149.0 7.0 L 151.0 11.0 L 151.0 192.0 L 147.0 198.0 L 144.0 200.0 L 10.0 200.0 L 4.0 195.0 L 3.0 12.0 L 4.0 8.0 Z"/>
<path fill="#D11228" fill-rule="evenodd" d="M 73.0 22.0 L 69.0 26.0 L 69.0 45.0 L 70.0 49.0 L 72.0 49.0 L 73.0 52.0 L 69.0 56.0 L 55.0 63.0 L 46.0 72.0 L 36.0 62.0 L 34.0 62.0 L 39.0 94.0 L 46.0 104.0 L 53.0 108.0 L 54.0 100.0 L 56.0 98.0 L 61.0 101.0 L 71.0 101.0 L 73.0 146.0 L 77.0 158.0 L 80.0 152.0 L 85.0 99.0 L 89.0 94.0 L 94.0 94.0 L 101.0 97.0 L 104.0 93.0 L 104.0 89.0 L 101.0 85.0 L 125.0 64.0 L 126.0 60.0 L 122.0 54.0 L 117.0 52.0 L 110.0 46.0 L 102.0 48.0 L 92.0 48.0 L 88.0 50.0 L 86.0 48.0 L 88.0 30.0 L 82.0 25.0 Z M 71.0 68.0 L 73.0 70.0 L 73.0 83.0 L 68.0 86.0 L 59.0 86.0 L 54.0 90.0 L 52.0 88.0 L 52.0 84.0 L 55.0 75.0 L 59.0 72.0 Z M 103.0 54.0 L 104.0 58.0 L 101.0 61.0 L 101.0 64.0 L 88.0 78.0 L 86.0 78.0 L 84.0 74.0 L 85.0 61.0 L 90.0 57.0 Z M 72.0 34.0 L 75.0 37.0 L 73.0 43.0 L 71.0 42.0 Z"/>
</svg>
