<svg xmlns="http://www.w3.org/2000/svg" viewBox="0 0 157 205" width="157" height="205" shape-rendering="geometricPrecision"><title>mahjong tile 35</title>
<path fill="#221815" fill-rule="evenodd" d="M 7.0 3.0 L 2.0 9.0 L 2.0 195.0 L 4.0 198.0 L 11.0 202.0 L 145.0 202.0 L 150.0 200.0 L 154.0 193.0 L 154.0 11.0 L 152.0 6.0 L 146.0 2.0 Z M 9.0 5.0 L 144.0 4.0 L 150.0 8.0 L 152.0 12.0 L 152.0 192.0 L 148.0 198.0 L 144.0 200.0 L 12.0 200.0 L 4.0 194.0 L 4.0 10.0 Z"/>
<path fill="#21983A" fill-rule="evenodd" d="M 24.0 141.0 L 25.0 143.0 L 35.0 143.0 L 38.0 150.0 L 48.0 160.0 L 48.0 176.0 L 43.0 184.0 L 46.0 186.0 L 57.0 185.0 L 60.0 187.0 L 62.0 183.0 L 59.0 177.0 L 66.0 171.0 L 74.0 171.0 L 80.0 174.0 L 93.0 173.0 L 99.0 180.0 L 101.0 180.0 L 102.0 175.0 L 85.0 164.0 L 87.0 162.0 L 94.0 162.0 L 97.0 159.0 L 119.0 159.0 L 124.0 161.0 L 131.0 167.0 L 136.0 166.0 L 130.0 159.0 L 109.0 150.0 L 103.0 150.0 L 98.0 154.0 L 89.0 155.0 L 82.0 159.0 L 73.0 156.0 L 61.0 165.0 L 60.0 158.0 L 62.0 152.0 L 60.0 150.0 L 57.0 150.0 L 55.0 155.0 L 53.0 156.0 L 51.0 147.0 L 45.0 141.0 L 39.0 139.0 L 27.0 139.0 Z M 128.0 113.0 L 125.0 110.0 L 111.0 108.0 L 107.0 110.0 L 104.0 115.0 L 104.0 125.0 L 106.0 126.0 L 109.0 122.0 L 111.0 122.0 L 116.0 113.0 Z M 46.0 95.0 L 45.0 97.0 L 53.0 102.0 L 54.0 108.0 L 60.0 115.0 L 63.0 115.0 L 65.0 113.0 L 64.0 102.0 L 53.0 95.0 Z M 92.0 33.0 L 88.0 36.0 L 84.0 47.0 L 83.0 62.0 L 81.0 63.0 L 72.0 56.0 L 69.0 57.0 L 69.0 60.0 L 75.0 64.0 L 76.0 72.0 L 78.0 74.0 L 82.0 72.0 L 84.0 73.0 L 85.0 86.0 L 79.0 86.0 L 74.0 82.0 L 68.0 80.0 L 64.0 81.0 L 75.0 90.0 L 77.0 97.0 L 82.0 102.0 L 85.0 101.0 L 87.0 103.0 L 86.0 106.0 L 89.0 111.0 L 103.0 105.0 L 112.0 96.0 L 117.0 96.0 L 117.0 94.0 L 114.0 92.0 L 97.0 97.0 L 95.0 99.0 L 92.0 95.0 L 91.0 88.0 L 97.0 84.0 L 105.0 74.0 L 108.0 73.0 L 96.0 73.0 L 92.0 77.0 L 90.0 76.0 L 89.0 65.0 L 93.0 64.0 L 97.0 56.0 L 103.0 51.0 L 103.0 49.0 L 100.0 48.0 L 92.0 54.0 L 90.0 53.0 L 94.0 39.0 L 94.0 35.0 Z"/>
<path fill="#D11228" fill-rule="evenodd" d="M 94.0 111.0 L 89.0 112.0 L 85.0 109.0 L 65.0 114.0 L 60.0 118.0 L 58.0 122.0 L 51.0 124.0 L 48.0 127.0 L 48.0 137.0 L 60.0 146.0 L 60.0 149.0 L 66.0 153.0 L 72.0 153.0 L 77.0 156.0 L 95.0 154.0 L 103.0 145.0 L 106.0 145.0 L 109.0 142.0 L 111.0 133.0 L 103.0 125.0 L 102.0 120.0 L 95.0 114.0 Z M 75.0 144.0 L 80.0 144.0 L 84.0 150.0 L 82.0 152.0 L 78.0 152.0 L 75.0 149.0 Z M 86.0 144.0 L 88.0 142.0 L 92.0 142.0 L 96.0 145.0 L 96.0 147.0 L 91.0 150.0 Z M 70.0 140.0 L 71.0 147.0 L 67.0 149.0 L 64.0 144.0 Z M 84.0 137.0 L 86.0 136.0 L 87.0 138.0 L 85.0 139.0 Z M 73.0 134.0 L 74.0 133.0 L 77.0 136.0 L 75.0 137.0 Z M 104.0 131.0 L 107.0 134.0 L 107.0 137.0 L 101.0 142.0 L 97.0 141.0 L 94.0 138.0 L 94.0 135.0 L 96.0 133.0 Z M 51.0 130.0 L 57.0 126.0 L 65.0 126.0 L 68.0 129.0 L 68.0 135.0 L 64.0 139.0 L 58.0 140.0 L 51.0 134.0 Z M 76.0 127.0 L 77.0 125.0 L 79.0 126.0 L 77.0 128.0 Z M 94.0 121.0 L 97.0 121.0 L 99.0 123.0 L 99.0 127.0 L 97.0 129.0 L 94.0 129.0 L 91.0 125.0 Z M 64.0 120.0 L 69.0 117.0 L 72.0 123.0 L 69.0 124.0 Z M 74.0 117.0 L 78.0 114.0 L 84.0 113.0 L 88.0 117.0 L 88.0 119.0 L 76.0 120.0 Z M 51.0 26.0 L 40.0 24.0 L 33.0 25.0 L 27.0 29.0 L 25.0 35.0 L 29.0 39.0 L 32.0 39.0 L 34.0 37.0 L 34.0 31.0 L 38.0 28.0 L 42.0 29.0 L 45.0 32.0 L 46.0 40.0 L 40.0 45.0 L 34.0 45.0 L 32.0 48.0 L 34.0 50.0 L 44.0 51.0 L 48.0 56.0 L 47.0 65.0 L 40.0 70.0 L 35.0 69.0 L 29.0 59.0 L 24.0 60.0 L 23.0 66.0 L 27.0 71.0 L 32.0 73.0 L 47.0 73.0 L 52.0 71.0 L 57.0 66.0 L 58.0 55.0 L 50.0 47.0 L 55.0 42.0 L 57.0 35.0 L 55.0 30.0 Z"/>
</svg>
