<svg xmlns="http://www.w3.org/2000/svg" viewBox="0 0 157 205" width="157" height="205" shape-rendering="geometricPrecision"><title>mahjong tile 39</title>
<path fill="#221815" fill-rule="evenodd" d="M 6.0 4.0 L 2.0 10.0 L 2.0 194.0 L 5.0 199.0 L 10.0 202.0 L 149.0 201.0 L 154.0 194.0 L 153.0 7.0 L 146.0 2.0 L 11.0 2.0 Z M 9.0 5.0 L 145.0 4.0 L 151.0 9.0 L 152.0 193.0 L 147.0 199.0 L 9.0 199.0 L 4.0 193.0 L 4.0 11.0 Z"/>
<path fill="#21983A" fill-rule="evenodd" d="M 76.0 25.0 L 75.0 27.0 L 83.0 34.0 L 88.0 43.0 L 91.0 56.0 L 91.0 68.0 L 88.0 81.0 L 79.0 101.0 L 78.0 107.0 L 75.0 107.0 L 72.0 99.0 L 67.0 94.0 L 56.0 90.0 L 49.0 92.0 L 55.0 95.0 L 49.0 101.0 L 34.0 101.0 L 27.0 104.0 L 26.0 107.0 L 29.0 108.0 L 33.0 106.0 L 43.0 106.0 L 51.0 109.0 L 58.0 116.0 L 66.0 138.0 L 66.0 145.0 L 65.0 146.0 L 61.0 142.0 L 59.0 142.0 L 58.0 146.0 L 66.0 156.0 L 70.0 174.0 L 81.0 182.0 L 90.0 168.0 L 89.0 166.0 L 86.0 166.0 L 84.0 164.0 L 84.0 151.0 L 90.0 145.0 L 85.0 142.0 L 87.0 125.0 L 92.0 116.0 L 101.0 107.0 L 113.0 102.0 L 119.0 103.0 L 125.0 107.0 L 135.0 121.0 L 136.0 116.0 L 130.0 105.0 L 120.0 98.0 L 122.0 95.0 L 120.0 93.0 L 109.0 92.0 L 108.0 88.0 L 103.0 88.0 L 97.0 90.0 L 89.0 97.0 L 88.0 96.0 L 97.0 71.0 L 97.0 50.0 L 89.0 33.0 L 80.0 25.0 Z M 69.0 129.0 L 71.0 128.0 L 72.0 130.0 L 70.0 131.0 Z M 57.0 105.0 L 59.0 104.0 L 60.0 106.0 L 59.0 107.0 Z M 61.0 99.0 L 63.0 98.0 L 66.0 102.0 L 65.0 103.0 Z M 57.0 97.0 L 60.0 96.0 L 62.0 98.0 L 59.0 99.0 Z"/>
<path fill="#D11228" fill-rule="evenodd" d="M 60.0 125.0 L 57.0 125.0 L 54.0 129.0 L 46.0 129.0 L 42.0 134.0 L 42.0 138.0 L 47.0 144.0 L 46.0 152.0 L 50.0 158.0 L 53.0 156.0 L 51.0 145.0 L 53.0 143.0 L 56.0 144.0 L 59.0 141.0 L 57.0 134.0 L 61.0 129.0 Z M 47.0 135.0 L 51.0 134.0 L 53.0 137.0 L 48.0 138.0 Z M 95.0 122.0 L 93.0 124.0 L 95.0 133.0 L 89.0 143.0 L 97.0 150.0 L 97.0 153.0 L 93.0 158.0 L 95.0 161.0 L 97.0 161.0 L 101.0 155.0 L 101.0 151.0 L 110.0 145.0 L 111.0 138.0 L 105.0 132.0 L 102.0 132.0 L 98.0 124.0 Z M 96.0 143.0 L 99.0 136.0 L 104.0 136.0 L 106.0 138.0 L 106.0 142.0 L 104.0 144.0 L 99.0 145.0 Z M 52.0 30.0 L 41.0 28.0 L 36.0 29.0 L 27.0 35.0 L 26.0 45.0 L 28.0 47.0 L 35.0 46.0 L 34.0 37.0 L 39.0 33.0 L 44.0 33.0 L 48.0 37.0 L 48.0 43.0 L 43.0 51.0 L 25.0 71.0 L 24.0 75.0 L 26.0 77.0 L 57.0 76.0 L 59.0 69.0 L 58.0 66.0 L 50.0 70.0 L 38.0 69.0 L 38.0 67.0 L 52.0 55.0 L 58.0 46.0 L 58.0 36.0 Z"/>
</svg>
