<svg xmlns="http://www.w3.org/2000/svg" viewBox="0 0 157 203" width="157" height="203" shape-rendering="geometricPrecision"><title>mahjong tile 42</title>
<path fill="#221815" fill-rule="evenodd" d="M 7.0 3.0 L 3.0 7.0 L 1.0 13.0 L 1.0 190.0 L 4.0 198.0 L 9.0 202.0 L 147.0 202.0 L 150.0 200.0 L 154.0 194.0 L 153.0 7.0 L 146.0 2.0 Z M 9.0 5.0 L 145.0 4.0 L 151.0 9.0 L 152.0 192.0 L 148.0 198.0 L 10.0 199.0 L 5.0 195.0 L 4.0 10.0 Z"/>
<path fill="#21983A" fill-rule="evenodd" d="M 112.0 151.0 L 107.0 145.0 L 101.0 142.0 L 92.0 142.0 L 83.0 150.0 L 81.0 156.0 L 77.0 153.0 L 74.0 160.0 L 71.0 157.0 L 66.0 160.0 L 65.0 157.0 L 62.0 156.0 L 60.0 161.0 L 58.0 159.0 L 52.0 161.0 L 38.0 149.0 L 32.0 146.0 L 22.0 146.0 L 17.0 152.0 L 16.0 162.0 L 17.0 166.0 L 23.0 171.0 L 30.0 171.0 L 38.0 163.0 L 62.0 183.0 L 75.0 190.0 L 79.0 185.0 L 88.0 165.0 L 94.0 161.0 L 108.0 160.0 L 112.0 155.0 Z M 57.0 172.0 L 59.0 170.0 L 64.0 176.0 L 60.0 176.0 Z M 47.0 165.0 L 49.0 164.0 L 52.0 167.0 L 50.0 168.0 Z M 68.0 163.0 L 69.0 162.0 L 70.0 164.0 L 69.0 165.0 Z M 40.0 159.0 L 42.0 158.0 L 46.0 162.0 L 44.0 163.0 Z M 20.0 162.0 L 21.0 154.0 L 25.0 150.0 L 33.0 151.0 L 40.0 157.0 L 36.0 158.0 L 27.0 167.0 L 23.0 166.0 Z M 107.0 152.0 L 105.0 156.0 L 95.0 156.0 L 85.0 162.0 L 84.0 161.0 L 87.0 153.0 L 94.0 146.0 L 99.0 146.0 Z M 24.0 43.0 L 22.0 48.0 L 23.0 58.0 L 26.0 63.0 L 36.0 69.0 L 39.0 91.0 L 39.0 107.0 L 37.0 108.0 L 33.0 105.0 L 26.0 105.0 L 23.0 108.0 L 25.0 115.0 L 28.0 118.0 L 33.0 118.0 L 41.0 121.0 L 45.0 119.0 L 44.0 117.0 L 46.0 115.0 L 51.0 116.0 L 59.0 111.0 L 64.0 118.0 L 71.0 119.0 L 76.0 126.0 L 90.0 123.0 L 93.0 117.0 L 92.0 111.0 L 87.0 109.0 L 81.0 110.0 L 80.0 107.0 L 95.0 100.0 L 95.0 88.0 L 91.0 86.0 L 79.0 88.0 L 73.0 94.0 L 69.0 107.0 L 61.0 105.0 L 61.0 98.0 L 59.0 96.0 L 49.0 98.0 L 48.0 65.0 L 45.0 52.0 L 34.0 44.0 Z M 87.0 114.0 L 88.0 118.0 L 81.0 121.0 L 80.0 118.0 L 84.0 114.0 Z M 28.0 111.0 L 31.0 109.0 L 37.0 114.0 L 31.0 114.0 Z M 54.0 101.0 L 56.0 103.0 L 56.0 106.0 L 52.0 110.0 L 50.0 110.0 L 49.0 105.0 Z M 91.0 92.0 L 91.0 96.0 L 88.0 99.0 L 84.0 99.0 L 77.0 104.0 L 75.0 103.0 L 77.0 96.0 L 81.0 92.0 L 88.0 90.0 Z M 42.0 70.0 L 44.0 71.0 L 43.0 77.0 L 41.0 76.0 Z M 29.0 47.0 L 37.0 51.0 L 42.0 56.0 L 42.0 68.0 L 28.0 58.0 L 26.0 50.0 Z"/>
<path fill="#D11228" fill-rule="evenodd" d="M 32.0 134.0 L 35.0 146.0 L 40.0 150.0 L 45.0 150.0 L 52.0 159.0 L 59.0 158.0 L 62.0 155.0 L 74.0 156.0 L 80.0 149.0 L 85.0 148.0 L 91.0 142.0 L 91.0 136.0 L 84.0 127.0 L 76.0 127.0 L 74.0 123.0 L 69.0 119.0 L 59.0 120.0 L 48.0 116.0 L 45.0 117.0 L 46.0 119.0 L 41.0 122.0 L 41.0 125.0 L 36.0 128.0 Z M 53.0 148.0 L 58.0 150.0 L 59.0 152.0 L 57.0 154.0 L 54.0 154.0 L 52.0 152.0 Z M 63.0 149.0 L 65.0 147.0 L 71.0 147.0 L 73.0 150.0 L 67.0 153.0 Z M 55.0 142.0 L 58.0 141.0 L 59.0 143.0 L 56.0 144.0 Z M 64.0 140.0 L 66.0 139.0 L 67.0 141.0 L 65.0 143.0 Z M 54.0 135.0 L 55.0 133.0 L 57.0 134.0 L 55.0 136.0 Z M 41.0 131.0 L 47.0 131.0 L 49.0 133.0 L 50.0 143.0 L 47.0 146.0 L 42.0 146.0 L 37.0 141.0 L 37.0 134.0 Z M 71.0 130.0 L 81.0 131.0 L 86.0 136.0 L 86.0 141.0 L 80.0 145.0 L 74.0 144.0 L 71.0 141.0 Z M 64.0 124.0 L 68.0 123.0 L 71.0 128.0 L 70.0 129.0 Z M 50.0 127.0 L 53.0 122.0 L 57.0 125.0 L 54.0 128.0 Z"/>
<path fill="#2926A5" fill-rule="evenodd" d="M 77.0 34.0 L 78.0 65.0 L 80.0 69.0 L 86.0 69.0 L 89.0 67.0 L 115.0 67.0 L 125.0 70.0 L 129.0 67.0 L 132.0 41.0 L 129.0 34.0 Z M 109.0 44.0 L 112.0 40.0 L 122.0 40.0 L 124.0 42.0 L 123.0 49.0 L 119.0 52.0 L 113.0 51.0 L 109.0 47.0 Z M 85.0 59.0 L 87.0 57.0 L 93.0 57.0 L 98.0 53.0 L 100.0 42.0 L 102.0 40.0 L 104.0 42.0 L 103.0 50.0 L 107.0 57.0 L 123.0 57.0 L 120.0 61.0 L 87.0 61.0 Z M 92.0 40.0 L 94.0 42.0 L 94.0 46.0 L 88.0 53.0 L 86.0 53.0 L 84.0 51.0 L 84.0 43.0 L 87.0 40.0 Z"/>
</svg>
