<svg xmlns="http://www.w3.org/2000/svg" viewBox="0 0 157 204" width="157" height="204" shape-rendering="geometricPrecision"><title>mahjong tile 40</title>
<path fill="#221815" fill-rule="evenodd" d="M 7.0 3.0 L 2.0 10.0 L 3.0 197.0 L 10.0 202.0 L 146.0 202.0 L 150.0 200.0 L 154.0 193.0 L 154.0 11.0 L 151.0 5.0 L 145.0 2.0 Z M 9.0 5.0 L 144.0 4.0 L 151.0 9.0 L 152.0 192.0 L 148.0 198.0 L 9.0 199.0 L 5.0 195.0 L 4.0 11.0 Z"/>
<path fill="#21983A" fill-rule="evenodd" d="M 64.0 97.0 L 54.0 100.0 L 50.0 104.0 L 51.0 109.0 L 49.0 111.0 L 45.0 112.0 L 43.0 109.0 L 36.0 109.0 L 25.0 117.0 L 29.0 119.0 L 41.0 115.0 L 43.0 116.0 L 42.0 140.0 L 46.0 149.0 L 48.0 148.0 L 50.0 143.0 L 51.0 131.0 L 53.0 128.0 L 55.0 129.0 L 59.0 135.0 L 60.0 144.0 L 64.0 148.0 L 64.0 161.0 L 66.0 163.0 L 66.0 168.0 L 64.0 170.0 L 61.0 165.0 L 53.0 159.0 L 42.0 158.0 L 38.0 160.0 L 40.0 162.0 L 49.0 163.0 L 55.0 169.0 L 55.0 179.0 L 59.0 184.0 L 71.0 184.0 L 75.0 177.0 L 74.0 156.0 L 71.0 153.0 L 69.0 139.0 L 54.0 121.0 L 56.0 120.0 L 72.0 128.0 L 74.0 127.0 L 63.0 115.0 L 56.0 110.0 L 58.0 108.0 L 64.0 107.0 L 71.0 100.0 L 70.0 97.0 Z M 43.0 88.0 L 39.0 89.0 L 36.0 92.0 L 37.0 101.0 L 39.0 104.0 L 40.0 101.0 L 47.0 95.0 L 46.0 90.0 Z M 136.0 82.0 L 123.0 84.0 L 118.0 89.0 L 112.0 88.0 L 106.0 90.0 L 94.0 98.0 L 95.0 101.0 L 100.0 101.0 L 107.0 97.0 L 109.0 99.0 L 103.0 108.0 L 103.0 113.0 L 106.0 116.0 L 97.0 132.0 L 96.0 142.0 L 92.0 149.0 L 93.0 154.0 L 90.0 170.0 L 90.0 177.0 L 92.0 179.0 L 95.0 179.0 L 100.0 175.0 L 105.0 176.0 L 108.0 173.0 L 113.0 156.0 L 124.0 148.0 L 122.0 146.0 L 112.0 148.0 L 105.0 155.0 L 103.0 163.0 L 100.0 163.0 L 101.0 144.0 L 103.0 138.0 L 106.0 135.0 L 105.0 128.0 L 112.0 116.0 L 114.0 117.0 L 115.0 130.0 L 119.0 134.0 L 121.0 132.0 L 123.0 122.0 L 124.0 102.0 L 126.0 101.0 L 134.0 107.0 L 137.0 107.0 L 137.0 103.0 L 128.0 92.0 L 136.0 86.0 Z M 117.0 91.0 L 118.0 90.0 L 119.0 92.0 L 118.0 93.0 Z M 111.0 70.0 L 108.0 74.0 L 108.0 77.0 L 111.0 80.0 L 116.0 80.0 L 118.0 78.0 L 118.0 72.0 L 116.0 70.0 Z"/>
<path fill="#D11228" fill-rule="evenodd" d="M 42.0 26.0 L 36.0 31.0 L 26.0 44.0 L 21.0 55.0 L 20.0 62.0 L 38.0 63.0 L 40.0 65.0 L 40.0 69.0 L 36.0 72.0 L 37.0 75.0 L 53.0 75.0 L 54.0 72.0 L 50.0 69.0 L 50.0 65.0 L 52.0 63.0 L 56.0 63.0 L 58.0 60.0 L 50.0 56.0 L 50.0 28.0 L 48.0 26.0 Z M 39.0 37.0 L 40.0 56.0 L 38.0 58.0 L 28.0 58.0 L 27.0 55.0 L 30.0 48.0 Z"/>
<path fill="#2926A5" fill-rule="evenodd" d="M 82.0 26.0 L 81.0 28.0 L 86.0 35.0 L 88.0 53.0 L 85.0 96.0 L 83.0 99.0 L 84.0 118.0 L 83.0 124.0 L 81.0 126.0 L 81.0 148.0 L 78.0 152.0 L 81.0 160.0 L 77.0 176.0 L 80.0 179.0 L 86.0 179.0 L 89.0 175.0 L 86.0 167.0 L 88.0 153.0 L 86.0 146.0 L 88.0 141.0 L 87.0 133.0 L 89.0 129.0 L 88.0 121.0 L 91.0 102.0 L 90.0 92.0 L 93.0 71.0 L 94.0 47.0 L 89.0 30.0 L 86.0 27.0 Z"/>
</svg>
