<svg xmlns="http://www.w3.org/2000/svg" viewBox="0 0 157 204" width="157" height="204" shape-rendering="geometricPrecision"><title>mahjong tile 36</title>
<path fill="#221815" fill-rule="evenodd" d="M 6.0 3.0 L 2.0 9.0 L 3.0 196.0 L 9.0 201.0 L 149.0 200.0 L 154.0 192.0 L 154.0 10.0 L 152.0 5.0 L 148.0 2.0 Z M 9.0 4.0 L 146.0 4.0 L 150.0 7.0 L 152.0 11.0 L 152.0 191.0 L 147.0 198.0 L 11.0 199.0 L 4.0 193.0 L 4.0 9.0 Z"/>
<path fill="#21983A" fill-rule="evenodd" d="M 137.0 135.0 L 134.0 132.0 L 126.0 131.0 L 123.0 125.0 L 119.0 127.0 L 118.0 133.0 L 112.0 125.0 L 105.0 125.0 L 104.0 135.0 L 106.0 137.0 L 106.0 141.0 L 110.0 144.0 L 111.0 147.0 L 97.0 154.0 L 94.0 157.0 L 94.0 162.0 L 82.0 155.0 L 73.0 157.0 L 72.0 160.0 L 77.0 164.0 L 76.0 166.0 L 73.0 165.0 L 55.0 145.0 L 58.0 142.0 L 58.0 137.0 L 55.0 131.0 L 51.0 129.0 L 46.0 130.0 L 43.0 136.0 L 37.0 130.0 L 34.0 134.0 L 28.0 130.0 L 23.0 131.0 L 20.0 135.0 L 22.0 142.0 L 19.0 145.0 L 19.0 148.0 L 21.0 149.0 L 26.0 145.0 L 31.0 153.0 L 39.0 150.0 L 43.0 154.0 L 50.0 153.0 L 54.0 150.0 L 57.0 154.0 L 48.0 158.0 L 48.0 163.0 L 51.0 167.0 L 57.0 168.0 L 64.0 163.0 L 69.0 169.0 L 74.0 171.0 L 99.0 173.0 L 113.0 182.0 L 120.0 184.0 L 122.0 182.0 L 122.0 178.0 L 110.0 174.0 L 101.0 166.0 L 101.0 164.0 L 104.0 163.0 L 106.0 165.0 L 112.0 165.0 L 116.0 158.0 L 113.0 149.0 L 119.0 146.0 L 126.0 146.0 L 129.0 143.0 L 129.0 137.0 L 131.0 136.0 L 136.0 138.0 Z M 85.0 165.0 L 88.0 164.0 L 89.0 166.0 L 87.0 167.0 Z M 61.0 158.0 L 57.0 163.0 L 53.0 162.0 L 56.0 158.0 Z M 102.0 158.0 L 107.0 153.0 L 111.0 156.0 L 109.0 159.0 Z M 39.0 147.0 L 41.0 144.0 L 44.0 145.0 L 42.0 148.0 Z M 114.0 138.0 L 116.0 139.0 L 115.0 144.0 L 110.0 142.0 Z M 51.0 136.0 L 53.0 140.0 L 49.0 142.0 L 48.0 140.0 Z M 27.0 135.0 L 29.0 137.0 L 28.0 140.0 L 25.0 138.0 Z M 34.0 134.0 L 37.0 137.0 L 35.0 140.0 L 33.0 138.0 Z M 119.0 132.0 L 125.0 138.0 L 123.0 142.0 L 120.0 140.0 L 120.0 137.0 L 118.0 135.0 Z M 109.0 129.0 L 113.0 132.0 L 111.0 136.0 L 107.0 131.0 Z M 80.0 26.0 L 78.0 27.0 L 78.0 29.0 L 82.0 34.0 L 87.0 51.0 L 80.0 51.0 L 77.0 54.0 L 77.0 60.0 L 72.0 62.0 L 72.0 66.0 L 77.0 72.0 L 81.0 69.0 L 81.0 64.0 L 84.0 64.0 L 85.0 68.0 L 80.0 78.0 L 72.0 72.0 L 69.0 72.0 L 65.0 75.0 L 65.0 82.0 L 67.0 86.0 L 60.0 87.0 L 64.0 94.0 L 68.0 94.0 L 71.0 88.0 L 74.0 90.0 L 71.0 100.0 L 60.0 98.0 L 57.0 101.0 L 57.0 108.0 L 60.0 112.0 L 73.0 112.0 L 76.0 110.0 L 76.0 105.0 L 78.0 103.0 L 84.0 104.0 L 88.0 102.0 L 91.0 98.0 L 91.0 91.0 L 89.0 87.0 L 94.0 85.0 L 95.0 81.0 L 90.0 80.0 L 83.0 87.0 L 81.0 86.0 L 88.0 74.0 L 91.0 77.0 L 96.0 77.0 L 101.0 72.0 L 101.0 65.0 L 94.0 61.0 L 99.0 57.0 L 100.0 53.0 L 92.0 53.0 L 91.0 39.0 Z M 61.0 104.0 L 63.0 102.0 L 66.0 102.0 L 70.0 106.0 L 63.0 108.0 Z M 79.0 91.0 L 81.0 90.0 L 87.0 96.0 L 84.0 99.0 L 80.0 99.0 L 78.0 97.0 Z M 70.0 78.0 L 72.0 77.0 L 76.0 83.0 L 72.0 83.0 L 70.0 81.0 Z M 95.0 66.0 L 97.0 68.0 L 97.0 71.0 L 95.0 73.0 L 89.0 74.0 L 88.0 72.0 Z M 82.0 57.0 L 85.0 56.0 L 87.0 60.0 L 85.0 61.0 Z"/>
<path fill="#D11228" fill-rule="evenodd" d="M 76.0 111.0 L 72.0 113.0 L 66.0 120.0 L 61.0 121.0 L 56.0 125.0 L 55.0 130.0 L 62.0 140.0 L 61.0 150.0 L 68.0 157.0 L 77.0 156.0 L 79.0 154.0 L 92.0 157.0 L 101.0 152.0 L 106.0 146.0 L 105.0 141.0 L 99.0 141.0 L 103.0 134.0 L 103.0 128.0 L 101.0 124.0 L 96.0 120.0 L 90.0 120.0 L 83.0 112.0 Z M 65.0 144.0 L 69.0 137.0 L 71.0 139.0 L 71.0 144.0 L 68.0 147.0 L 70.0 150.0 L 72.0 150.0 L 75.0 146.0 L 84.0 145.0 L 88.0 149.0 L 90.0 149.0 L 92.0 147.0 L 90.0 141.0 L 92.0 140.0 L 95.0 145.0 L 95.0 150.0 L 91.0 153.0 L 87.0 153.0 L 80.0 149.0 L 76.0 152.0 L 69.0 153.0 L 65.0 149.0 Z M 80.0 127.0 L 87.0 132.0 L 85.0 136.0 L 86.0 139.0 L 84.0 141.0 L 76.0 141.0 L 73.0 132.0 Z M 62.0 126.0 L 65.0 127.0 L 63.0 131.0 L 67.0 134.0 L 66.0 136.0 L 60.0 131.0 L 60.0 128.0 Z M 90.0 124.0 L 95.0 125.0 L 99.0 130.0 L 97.0 135.0 L 92.0 139.0 L 90.0 137.0 L 96.0 132.0 L 96.0 130.0 L 92.0 129.0 L 89.0 126.0 Z M 81.0 120.0 L 83.0 119.0 L 84.0 122.0 L 83.0 123.0 Z M 77.0 119.0 L 77.0 122.0 L 72.0 128.0 L 68.0 129.0 L 65.0 127.0 L 67.0 124.0 L 70.0 124.0 L 74.0 118.0 Z M 40.0 109.0 L 36.0 113.0 L 36.0 120.0 L 40.0 124.0 L 46.0 124.0 L 50.0 120.0 L 50.0 113.0 L 46.0 109.0 Z M 40.0 118.0 L 42.0 114.0 L 46.0 116.0 L 43.0 120.0 Z M 106.0 100.0 L 102.0 104.0 L 102.0 110.0 L 105.0 114.0 L 113.0 114.0 L 116.0 110.0 L 116.0 104.0 L 112.0 100.0 Z M 106.0 107.0 L 110.0 105.0 L 112.0 108.0 L 108.0 110.0 Z M 41.0 25.0 L 27.0 31.0 L 29.0 34.0 L 35.0 34.0 L 37.0 36.0 L 37.0 67.0 L 35.0 69.0 L 30.0 69.0 L 28.0 72.0 L 32.0 74.0 L 52.0 74.0 L 55.0 71.0 L 47.0 67.0 L 47.0 26.0 Z"/>
</svg>
