<svg xmlns="http://www.w3.org/2000/svg" viewBox="0 0 156 203" width="156" height="203" shape-rendering="geometricPrecision"><title>mahjong tile 41</title>
<path fill="#221815" fill-rule="evenodd" d="M 5.0 4.0 L 1.0 10.0 L 2.0 196.0 L 9.0 202.0 L 148.0 201.0 L 154.0 193.0 L 154.0 10.0 L 152.0 6.0 L 145.0 2.0 L 10.0 2.0 Z M 10.0 4.0 L 145.0 4.0 L 150.0 8.0 L 151.0 194.0 L 148.0 198.0 L 9.0 199.0 L 5.0 196.0 L 4.0 9.0 Z"/>
<path fill="#21983A" fill-rule="evenodd" d="M 124.0 151.0 L 118.0 143.0 L 105.0 139.0 L 99.0 141.0 L 94.0 146.0 L 89.0 159.0 L 81.0 149.0 L 76.0 152.0 L 70.0 146.0 L 68.0 149.0 L 74.0 156.0 L 72.0 158.0 L 68.0 154.0 L 53.0 146.0 L 37.0 140.0 L 30.0 140.0 L 24.0 143.0 L 20.0 148.0 L 19.0 167.0 L 23.0 167.0 L 23.0 159.0 L 25.0 157.0 L 38.0 157.0 L 45.0 147.0 L 51.0 152.0 L 48.0 153.0 L 43.0 159.0 L 43.0 164.0 L 40.0 169.0 L 40.0 173.0 L 42.0 175.0 L 46.0 168.0 L 58.0 168.0 L 64.0 160.0 L 67.0 159.0 L 86.0 172.0 L 103.0 179.0 L 106.0 178.0 L 109.0 182.0 L 112.0 183.0 L 113.0 172.0 L 109.0 172.0 L 105.0 175.0 L 100.0 173.0 L 95.0 168.0 L 94.0 157.0 L 96.0 155.0 L 101.0 157.0 L 110.0 157.0 L 116.0 148.0 L 122.0 153.0 Z M 58.0 161.0 L 54.0 165.0 L 50.0 164.0 L 55.0 160.0 Z M 99.0 150.0 L 105.0 146.0 L 109.0 146.0 L 111.0 148.0 L 107.0 153.0 L 102.0 153.0 Z M 34.0 146.0 L 27.0 150.0 L 25.0 149.0 L 31.0 144.0 Z M 31.0 38.0 L 33.0 40.0 L 40.0 41.0 L 51.0 49.0 L 52.0 53.0 L 44.0 62.0 L 44.0 73.0 L 48.0 79.0 L 54.0 82.0 L 55.0 86.0 L 53.0 88.0 L 52.0 105.0 L 44.0 96.0 L 33.0 95.0 L 24.0 101.0 L 24.0 106.0 L 31.0 102.0 L 36.0 111.0 L 41.0 113.0 L 54.0 114.0 L 57.0 112.0 L 57.0 106.0 L 59.0 104.0 L 69.0 105.0 L 76.0 101.0 L 80.0 96.0 L 85.0 101.0 L 85.0 105.0 L 81.0 110.0 L 82.0 114.0 L 89.0 108.0 L 98.0 109.0 L 105.0 106.0 L 109.0 102.0 L 112.0 102.0 L 116.0 106.0 L 116.0 100.0 L 110.0 94.0 L 104.0 92.0 L 96.0 92.0 L 87.0 97.0 L 74.0 87.0 L 65.0 87.0 L 59.0 93.0 L 58.0 79.0 L 60.0 61.0 L 56.0 48.0 L 45.0 38.0 Z M 41.0 102.0 L 43.0 101.0 L 44.0 103.0 L 43.0 104.0 Z M 102.0 101.0 L 100.0 104.0 L 94.0 104.0 L 95.0 102.0 L 100.0 100.0 Z M 55.0 64.0 L 56.0 69.0 L 53.0 71.0 L 52.0 67.0 Z M 51.0 60.0 L 54.0 58.0 L 56.0 62.0 L 54.0 63.0 Z"/>
<path fill="#D11228" fill-rule="evenodd" d="M 46.0 118.0 L 45.0 133.0 L 48.0 140.0 L 54.0 146.0 L 61.0 147.0 L 71.0 141.0 L 79.0 148.0 L 86.0 149.0 L 93.0 146.0 L 98.0 140.0 L 99.0 128.0 L 96.0 122.0 L 90.0 118.0 L 83.0 116.0 L 76.0 108.0 L 73.0 108.0 L 68.0 112.0 L 50.0 115.0 Z M 76.0 129.0 L 78.0 130.0 L 79.0 134.0 L 78.0 140.0 L 75.0 136.0 Z M 90.0 124.0 L 94.0 129.0 L 93.0 137.0 L 90.0 135.0 Z M 55.0 118.0 L 59.0 120.0 L 58.0 130.0 L 63.0 139.0 L 61.0 142.0 L 56.0 141.0 L 49.0 131.0 L 49.0 123.0 Z M 67.0 117.0 L 68.0 119.0 L 66.0 123.0 L 66.0 129.0 L 64.0 130.0 L 63.0 122.0 Z M 75.0 114.0 L 78.0 118.0 L 73.0 122.0 L 70.0 117.0 Z"/>
<path fill="#2926A5" fill-rule="evenodd" d="M 69.0 73.0 L 74.0 74.0 L 80.0 71.0 L 98.0 70.0 L 111.0 71.0 L 128.0 75.0 L 133.0 72.0 L 135.0 66.0 L 76.0 64.0 L 70.0 68.0 Z M 81.0 58.0 L 116.0 58.0 L 119.0 56.0 L 119.0 54.0 L 111.0 52.0 L 86.0 52.0 L 81.0 55.0 Z M 77.0 46.0 L 122.0 46.0 L 124.0 43.0 L 118.0 39.0 L 82.0 39.0 L 78.0 41.0 Z"/>
</svg>
