<svg xmlns="http://www.w3.org/2000/svg" viewBox="0 0 157 204" width="157" height="204" shape-rendering="geometricPrecision"><title>mahjong tile 37</title>
<path fill="#221815" fill-rule="evenodd" d="M 7.0 3.0 L 2.0 10.0 L 3.0 196.0 L 8.0 201.0 L 150.0 200.0 L 155.0 192.0 L 155.0 11.0 L 152.0 5.0 L 146.0 2.0 Z M 9.0 5.0 L 145.0 4.0 L 151.0 8.0 L 152.0 193.0 L 148.0 198.0 L 10.0 199.0 L 5.0 194.0 L 5.0 9.0 Z"/>
<path fill="#21983A" fill-rule="evenodd" d="M 127.0 149.0 L 121.0 142.0 L 114.0 139.0 L 101.0 139.0 L 95.0 144.0 L 93.0 148.0 L 95.0 153.0 L 95.0 160.0 L 93.0 162.0 L 84.0 150.0 L 78.0 155.0 L 77.0 158.0 L 75.0 156.0 L 70.0 156.0 L 69.0 157.0 L 73.0 161.0 L 71.0 162.0 L 47.0 148.0 L 40.0 146.0 L 29.0 146.0 L 19.0 154.0 L 18.0 167.0 L 20.0 169.0 L 21.0 165.0 L 24.0 163.0 L 31.0 168.0 L 36.0 168.0 L 49.0 154.0 L 61.0 162.0 L 109.0 185.0 L 115.0 186.0 L 116.0 184.0 L 113.0 180.0 L 113.0 177.0 L 116.0 173.0 L 114.0 171.0 L 109.0 174.0 L 98.0 167.0 L 98.0 163.0 L 100.0 159.0 L 112.0 158.0 L 116.0 154.0 L 119.0 147.0 L 125.0 154.0 L 127.0 153.0 Z M 89.0 167.0 L 90.0 166.0 L 96.0 172.0 L 92.0 172.0 Z M 28.0 160.0 L 29.0 159.0 L 31.0 161.0 L 29.0 162.0 Z M 37.0 151.0 L 38.0 153.0 L 32.0 158.0 L 31.0 156.0 Z M 102.0 144.0 L 113.0 143.0 L 114.0 148.0 L 112.0 152.0 L 108.0 155.0 L 103.0 155.0 L 101.0 152.0 L 103.0 150.0 L 109.0 150.0 L 110.0 147.0 L 103.0 146.0 Z M 84.0 102.0 L 90.0 109.0 L 99.0 105.0 L 103.0 110.0 L 107.0 108.0 L 112.0 112.0 L 113.0 111.0 L 109.0 103.0 L 91.0 98.0 Z M 28.0 37.0 L 28.0 39.0 L 38.0 40.0 L 46.0 45.0 L 53.0 54.0 L 52.0 58.0 L 48.0 58.0 L 42.0 62.0 L 40.0 65.0 L 40.0 72.0 L 48.0 81.0 L 50.0 79.0 L 54.0 84.0 L 54.0 93.0 L 52.0 96.0 L 47.0 92.0 L 29.0 93.0 L 21.0 98.0 L 21.0 102.0 L 30.0 98.0 L 33.0 111.0 L 36.0 113.0 L 45.0 113.0 L 46.0 109.0 L 59.0 105.0 L 62.0 101.0 L 76.0 101.0 L 82.0 95.0 L 83.0 87.0 L 85.0 85.0 L 92.0 90.0 L 94.0 89.0 L 93.0 85.0 L 86.0 81.0 L 68.0 81.0 L 64.0 83.0 L 63.0 81.0 L 66.0 75.0 L 66.0 68.0 L 59.0 59.0 L 54.0 45.0 L 40.0 36.0 Z M 35.0 101.0 L 39.0 98.0 L 43.0 103.0 L 40.0 104.0 Z M 79.0 88.0 L 79.0 92.0 L 76.0 95.0 L 69.0 92.0 L 70.0 90.0 L 76.0 90.0 L 77.0 86.0 Z M 60.0 68.0 L 62.0 69.0 L 61.0 76.0 L 59.0 75.0 Z M 50.0 63.0 L 54.0 62.0 L 55.0 65.0 L 52.0 66.0 Z"/>
<path fill="#D11228" fill-rule="evenodd" d="M 101.0 109.0 L 97.0 111.0 L 91.0 111.0 L 84.0 104.0 L 78.0 102.0 L 64.0 103.0 L 60.0 106.0 L 49.0 109.0 L 49.0 117.0 L 40.0 125.0 L 40.0 137.0 L 47.0 144.0 L 55.0 144.0 L 65.0 154.0 L 75.0 155.0 L 84.0 149.0 L 85.0 143.0 L 87.0 141.0 L 96.0 142.0 L 103.0 135.0 L 105.0 125.0 L 98.0 116.0 L 103.0 112.0 Z M 60.0 139.0 L 61.0 138.0 L 68.0 142.0 L 74.0 142.0 L 78.0 140.0 L 81.0 140.0 L 82.0 142.0 L 81.0 145.0 L 74.0 151.0 L 68.0 151.0 L 61.0 145.0 Z M 63.0 132.0 L 65.0 130.0 L 67.0 131.0 L 70.0 136.0 L 67.0 137.0 Z M 80.0 128.0 L 81.0 131.0 L 79.0 135.0 L 75.0 137.0 L 74.0 133.0 Z M 70.0 130.0 L 71.0 128.0 L 73.0 129.0 L 71.0 131.0 Z M 49.0 122.0 L 53.0 122.0 L 59.0 125.0 L 60.0 136.0 L 54.0 140.0 L 47.0 139.0 L 43.0 134.0 L 43.0 129.0 Z M 76.0 121.0 L 79.0 124.0 L 78.0 127.0 L 74.0 124.0 Z M 87.0 119.0 L 94.0 119.0 L 101.0 125.0 L 100.0 132.0 L 94.0 138.0 L 87.0 136.0 L 85.0 137.0 L 83.0 135.0 L 85.0 132.0 L 83.0 123.0 Z M 60.0 120.0 L 62.0 117.0 L 64.0 119.0 L 62.0 121.0 Z M 65.0 107.0 L 68.0 111.0 L 68.0 116.0 L 62.0 112.0 Z M 71.0 108.0 L 73.0 106.0 L 76.0 106.0 L 78.0 108.0 L 78.0 111.0 L 74.0 113.0 Z"/>
<path fill="#2926A5" fill-rule="evenodd" d="M 73.0 55.0 L 75.0 57.0 L 80.0 57.0 L 90.0 54.0 L 109.0 54.0 L 121.0 57.0 L 129.0 57.0 L 133.0 54.0 L 135.0 49.0 L 79.0 48.0 L 74.0 52.0 Z"/>
</svg>
